<?xml version="1.0" standalone="no"?>
 <!DOCTYPE svg PUBLIC "-//W3C//DTD SVG 1.1//EN" 
 "http://www.w3.org/Graphics/SVG/1.1/DTD/svg11.dtd"> 
<svg xmlns="http://www.w3.org/2000/svg" version="1.1" 
    width="29.7002cm" height="21.0007cm" viewBox="0 0 116930 82680 ">
<title>SVG Picture created as PlacaReceptoraSegundaTentativa-B_Cu.svg date 2019/11/26 18:00:32 </title>
  <desc>Picture generated by PCBNEW </desc>
<g style="fill:#000000; fill-opacity:1;stroke:#000000; stroke-opacity:1;
stroke-linecap:round; stroke-linejoin:round; "
 transform="translate(0 0) scale(1 1)">
</g>
<g style="fill:#000000; fill-opacity:0.0; 
stroke:#000000; stroke-width:-0.000393701; stroke-opacity:1; 
stroke-linecap:round; stroke-linejoin:round;">
</g>
<g style="fill:#000000; fill-opacity:1.0; 
stroke:#000000; stroke-width:39.3701; stroke-opacity:1; 
stroke-linecap:round; stroke-linejoin:round;">
<rect x="47852" y="6071.65" width="27467.9" height="29648.2" rx="0" />
</g>
<g style="fill:#FFFFFF; fill-opacity:1.0; 
stroke:#FFFFFF; stroke-width:39.3701; stroke-opacity:1; 
stroke-linecap:round; stroke-linejoin:round;">
</g>
<g style="fill:#FFFFFF; fill-opacity:0.0; 
stroke:#FFFFFF; stroke-width:39.3701; stroke-opacity:1; 
stroke-linecap:round; stroke-linejoin:round;">
</g>
<g style="fill:#FFFFFF; fill-opacity:0.0; 
stroke:#FFFFFF; stroke-width:118.11; stroke-opacity:1; 
stroke-linecap:round; stroke-linejoin:round;">
<path d="M72837 32168
L72574 32956
L72312 32168
" />
<path d="M71637 32956
L72087 32956
" />
<path d="M71862 32956
L71862 32168
L71937 32281
L72012 32356
L72087 32393
" />
<path d="M72809 19067
L72809 18476
L72668 18476
L72584 18504
L72528 18560
L72499 18617
L72471 18729
L72471 18814
L72499 18926
L72528 18982
L72584 19039
L72668 19067
L72809 19067
" />
<path d="M71965 19067
L71965 18757
L71993 18701
L72049 18673
L72162 18673
L72218 18701
" />
<path d="M71965 19039
L72021 19067
L72162 19067
L72218 19039
L72246 18982
L72246 18926
L72218 18870
L72162 18842
L72021 18842
L71965 18814
" />
<path d="M71824 19123
L71375 19123
" />
<path d="M70925 19067
L71262 19067
" />
<path d="M71093 19067
L71093 18476
L71150 18560
L71206 18617
L71262 18645
" />
<path d="M70559 18476
L70503 18476
L70447 18504
L70418 18532
L70390 18589
L70362 18701
L70362 18842
L70390 18954
L70418 19010
L70447 19039
L70503 19067
L70559 19067
L70615 19039
L70643 19010
L70671 18954
L70700 18842
L70700 18701
L70671 18589
L70643 18532
L70615 18504
L70559 18476
" />
<path d="M63499 29656
L62900 29656
" />
<path d="M63200 29956
L63200 29356
" />
<path d="M52299 30456
L51700 30456
" />
<path d="M52000 30756
L52000 30156
" />
<g >
</g>
<g style="fill:#FFFFFF; fill-opacity:1.0; 
stroke:#FFFFFF; stroke-width:0; stroke-opacity:1; 
stroke-linecap:round; stroke-linejoin:round;">
<circle cx="66050" cy="19200" r="460.63" /> 
</g>
<g style="fill:#FFFFFF; fill-opacity:1.0; 
stroke:#FFFFFF; stroke-width:39.3701; stroke-opacity:1; 
stroke-linecap:round; stroke-linejoin:round;">
</g>
<g style="fill:#FFFFFF; fill-opacity:1.0; 
stroke:#FFFFFF; stroke-width:0; stroke-opacity:1; 
stroke-linecap:round; stroke-linejoin:round;">
<circle cx="62113" cy="20184.3" r="460.63" /> 
</g>
<g style="fill:#FFFFFF; fill-opacity:1.0; 
stroke:#FFFFFF; stroke-width:39.3701; stroke-opacity:1; 
stroke-linecap:round; stroke-linejoin:round;">
</g>
<g style="fill:#FFFFFF; fill-opacity:1.0; 
stroke:#FFFFFF; stroke-width:0; stroke-opacity:1; 
stroke-linecap:round; stroke-linejoin:round;">
<circle cx="66050" cy="21168.5" r="460.63" /> 
</g>
<g style="fill:#FFFFFF; fill-opacity:1.0; 
stroke:#FFFFFF; stroke-width:39.3701; stroke-opacity:1; 
stroke-linecap:round; stroke-linejoin:round;">
</g>
<g >
</g>
<g style="fill:#FFFFFF; fill-opacity:1.0; 
stroke:#FFFFFF; stroke-width:0; stroke-opacity:1; 
stroke-linecap:round; stroke-linejoin:round;">
<circle cx="72168.5" cy="20750" r="314.961" /> 
</g>
<g style="fill:#FFFFFF; fill-opacity:1.0; 
stroke:#FFFFFF; stroke-width:39.3701; stroke-opacity:1; 
stroke-linecap:round; stroke-linejoin:round;">
</g>
<g style="fill:#FFFFFF; fill-opacity:1.0; 
stroke:#FFFFFF; stroke-width:0; stroke-opacity:1; 
stroke-linecap:round; stroke-linejoin:round;">
<path style="fill:#FFFFFF; fill-opacity:1.0; 
stroke:#FFFFFF; stroke-width:0; stroke-opacity:1; 
stroke-linecap:round; stroke-linejoin:round;fill-rule:evenodd;"
d="M 69885,21064
69885,20435
70514,20435
70514,21064
69885,21064
Z" /> 
</g>
<g >
<circle cx="59950" cy="26718.5" r="314.961" /> 
</g>
<g style="fill:#FFFFFF; fill-opacity:1.0; 
stroke:#FFFFFF; stroke-width:39.3701; stroke-opacity:1; 
stroke-linecap:round; stroke-linejoin:round;">
</g>
<g style="fill:#FFFFFF; fill-opacity:1.0; 
stroke:#FFFFFF; stroke-width:0; stroke-opacity:1; 
stroke-linecap:round; stroke-linejoin:round;">
<path style="fill:#FFFFFF; fill-opacity:1.0; 
stroke:#FFFFFF; stroke-width:0; stroke-opacity:1; 
stroke-linecap:round; stroke-linejoin:round;fill-rule:evenodd;"
d="M 59635,24435
60264,24435
60264,25064
59635,25064
59635,24435
Z" /> 
</g>
<g >
<path style="fill:#FFFFFF; fill-opacity:1.0; 
stroke:#FFFFFF; stroke-width:0; stroke-opacity:1; 
stroke-linecap:round; stroke-linejoin:round;fill-rule:evenodd;"
d="M 52913,24888
51929,24888
51929,23511
52913,23511
52913,24888
Z" /> 
</g>
<g style="fill:#FFFFFF; fill-opacity:1.0; 
stroke:#FFFFFF; stroke-width:688.976; stroke-opacity:1; 
stroke-linecap:round; stroke-linejoin:round;">
</g>
<g style="fill:#FFFFFF; fill-opacity:0.0; 
stroke:#FFFFFF; stroke-width:688.976; stroke-opacity:1; 
stroke-linecap:round; stroke-linejoin:round;">
<path d="M54048 22231
L54737 22231
" />
<path d="M54048 26168
L54737 26168
" />
<path d="M54048 23215
L54737 23215
" />
<path d="M54048 25184
L54737 25184
" />
</g>
<g >
</g>
<g style="fill:#FFFFFF; fill-opacity:0.0; 
stroke:#FFFFFF; stroke-width:866.142; stroke-opacity:1; 
stroke-linecap:round; stroke-linejoin:round;">
<path d="M69586 23200
L69113 23200
" />
<path d="M69586 25200
L69113 25200
" />
</g>
<g >
</g>
<g style="fill:#FFFFFF; fill-opacity:0.0; 
stroke:#FFFFFF; stroke-width:600; stroke-opacity:1; 
stroke-linecap:round; stroke-linejoin:round;">
<path d="M58457 23387
L58742 23387
" />
<path d="M58457 22600
L58742 22600
" />
<path d="M58457 21812
L58742 21812
" />
<path d="M60441 23387
L60727 23387
" />
<path d="M60441 22600
L60727 22600
" />
<path d="M60441 21812
L60727 21812
" />
</g>
<g >
</g>
<g style="fill:#FFFFFF; fill-opacity:1.0; 
stroke:#FFFFFF; stroke-width:0; stroke-opacity:1; 
stroke-linecap:round; stroke-linejoin:round;">
<circle cx="54200" cy="30350" r="590.551" /> 
</g>
<g style="fill:#FFFFFF; fill-opacity:1.0; 
stroke:#FFFFFF; stroke-width:39.3701; stroke-opacity:1; 
stroke-linecap:round; stroke-linejoin:round;">
</g>
<g style="fill:#FFFFFF; fill-opacity:1.0; 
stroke:#FFFFFF; stroke-width:0; stroke-opacity:1; 
stroke-linecap:round; stroke-linejoin:round;">
<path style="fill:#FFFFFF; fill-opacity:1.0; 
stroke:#FFFFFF; stroke-width:0; stroke-opacity:1; 
stroke-linecap:round; stroke-linejoin:round;fill-rule:evenodd;"
d="M 53609,27759
54790,27759
54790,28940
53609,28940
53609,27759
Z" /> 
</g>
<g >
<path style="fill:#FFFFFF; fill-opacity:1.0; 
stroke:#FFFFFF; stroke-width:0; stroke-opacity:1; 
stroke-linecap:round; stroke-linejoin:round;fill-rule:evenodd;"
d="M 68909,28859
70090,28859
70090,30040
68909,30040
68909,28859
Z" /> 
<circle cx="69500" cy="31450" r="590.551" /> 
</g>
<g style="fill:#FFFFFF; fill-opacity:1.0; 
stroke:#FFFFFF; stroke-width:39.3701; stroke-opacity:1; 
stroke-linecap:round; stroke-linejoin:round;">
</g>
<g >
</g>
<g style="fill:#FFFFFF; fill-opacity:1.0; 
stroke:#FFFFFF; stroke-width:0; stroke-opacity:1; 
stroke-linecap:round; stroke-linejoin:round;">
<circle cx="61150" cy="31050" r="590.551" /> 
</g>
<g style="fill:#FFFFFF; fill-opacity:1.0; 
stroke:#FFFFFF; stroke-width:39.3701; stroke-opacity:1; 
stroke-linecap:round; stroke-linejoin:round;">
</g>
<g style="fill:#FFFFFF; fill-opacity:1.0; 
stroke:#FFFFFF; stroke-width:0; stroke-opacity:1; 
stroke-linecap:round; stroke-linejoin:round;">
<path style="fill:#FFFFFF; fill-opacity:1.0; 
stroke:#FFFFFF; stroke-width:0; stroke-opacity:1; 
stroke-linecap:round; stroke-linejoin:round;fill-rule:evenodd;"
d="M 63740,30459
63740,31640
62559,31640
62559,30459
63740,30459
Z" /> 
</g>
<g >
</g>
<g style="fill:#FFFFFF; fill-opacity:1.0; 
stroke:#FFFFFF; stroke-width:629.921; stroke-opacity:1; 
stroke-linecap:round; stroke-linejoin:round;">
</g>
<g style="fill:#FFFFFF; fill-opacity:0.0; 
stroke:#FFFFFF; stroke-width:629.921; stroke-opacity:1; 
stroke-linecap:round; stroke-linejoin:round;">
<path d="M58900 28350
L58900 28350
" />
</g>
<g style="fill:#FFFFFF; fill-opacity:1.0; 
stroke:#FFFFFF; stroke-width:0; stroke-opacity:1; 
stroke-linecap:round; stroke-linejoin:round;">
<circle cx="63900" cy="28350" r="314.961" /> 
</g>
<g style="fill:#FFFFFF; fill-opacity:1.0; 
stroke:#FFFFFF; stroke-width:39.3701; stroke-opacity:1; 
stroke-linecap:round; stroke-linejoin:round;">
</g>
<g >
</g>
<g style="fill:#FFFFFF; fill-opacity:1.0; 
stroke:#FFFFFF; stroke-width:0; stroke-opacity:1; 
stroke-linecap:round; stroke-linejoin:round;">
<circle cx="56150" cy="20550" r="460.63" /> 
</g>
<g style="fill:#FFFFFF; fill-opacity:1.0; 
stroke:#FFFFFF; stroke-width:39.3701; stroke-opacity:1; 
stroke-linecap:round; stroke-linejoin:round;">
</g>
<g style="fill:#FFFFFF; fill-opacity:1.0; 
stroke:#FFFFFF; stroke-width:0; stroke-opacity:1; 
stroke-linecap:round; stroke-linejoin:round;">
<circle cx="54181.5" cy="20550" r="460.63" /> 
</g>
<g style="fill:#FFFFFF; fill-opacity:1.0; 
stroke:#FFFFFF; stroke-width:39.3701; stroke-opacity:1; 
stroke-linecap:round; stroke-linejoin:round;">
</g>
<g style="fill:#FFFFFF; fill-opacity:1.0; 
stroke:#FFFFFF; stroke-width:0; stroke-opacity:1; 
stroke-linecap:round; stroke-linejoin:round;">
<circle cx="52213" cy="20550" r="460.63" /> 
</g>
<g style="fill:#FFFFFF; fill-opacity:1.0; 
stroke:#FFFFFF; stroke-width:39.3701; stroke-opacity:1; 
stroke-linecap:round; stroke-linejoin:round;">
</g>
<g >
</g>
<g style="fill:#FFFFFF; fill-opacity:1.0; 
stroke:#FFFFFF; stroke-width:629.921; stroke-opacity:1; 
stroke-linecap:round; stroke-linejoin:round;">
</g>
<g style="fill:#FFFFFF; fill-opacity:0.0; 
stroke:#FFFFFF; stroke-width:629.921; stroke-opacity:1; 
stroke-linecap:round; stroke-linejoin:round;">
<path d="M65092 23250
L65407 23250
" />
<path d="M62092 26250
L62407 26250
" />
<path d="M65092 24250
L65407 24250
" />
<path d="M62092 25250
L62407 25250
" />
<path d="M65092 25250
L65407 25250
" />
<path d="M62092 24250
L62407 24250
" />
<path d="M65092 26250
L65407 26250
" />
</g>
<g style="fill:#FFFFFF; fill-opacity:0.0; 
stroke:#FFFFFF; stroke-width:0; stroke-opacity:1; 
stroke-linecap:round; stroke-linejoin:round;">
</g>
<g style="fill:#FFFFFF; fill-opacity:1.0; 
stroke:#FFFFFF; stroke-width:0; stroke-opacity:1; 
stroke-linecap:round; stroke-linejoin:round;">
<path style="fill:#FFFFFF; fill-opacity:1.0; 
stroke:#FFFFFF; stroke-width:0; stroke-opacity:1; 
stroke-linecap:round; stroke-linejoin:round;fill-rule:evenodd;"
d="M 61777,23564
61777,22935
62722,22935
62722,23564
61777,23564
Z" /> 
</g>
<g >
<path style="fill:#FFFFFF; fill-opacity:1.0; 
stroke:#FFFFFF; stroke-width:0; stroke-opacity:1; 
stroke-linecap:round; stroke-linejoin:round;fill-rule:evenodd;"
d="M 67214,27985
67214,28614
66585,28614
66585,27985
67214,27985
Z" /> 
<circle cx="64931.5" cy="28300" r="314.961" /> 
</g>
<g style="fill:#FFFFFF; fill-opacity:1.0; 
stroke:#FFFFFF; stroke-width:39.3701; stroke-opacity:1; 
stroke-linecap:round; stroke-linejoin:round;">
</g>
<g >
</g>
<g style="fill:#FFFFFF; fill-opacity:1.0; 
stroke:#FFFFFF; stroke-width:0; stroke-opacity:1; 
stroke-linecap:round; stroke-linejoin:round;">
<circle cx="68300" cy="19781.5" r="314.961" /> 
</g>
<g style="fill:#FFFFFF; fill-opacity:1.0; 
stroke:#FFFFFF; stroke-width:39.3701; stroke-opacity:1; 
stroke-linecap:round; stroke-linejoin:round;">
</g>
<g style="fill:#FFFFFF; fill-opacity:1.0; 
stroke:#FFFFFF; stroke-width:0; stroke-opacity:1; 
stroke-linecap:round; stroke-linejoin:round;">
<path style="fill:#FFFFFF; fill-opacity:1.0; 
stroke:#FFFFFF; stroke-width:0; stroke-opacity:1; 
stroke-linecap:round; stroke-linejoin:round;fill-rule:evenodd;"
d="M 68614,22064
67985,22064
67985,21435
68614,21435
68614,22064
Z" /> 
</g>
<g >
<path style="fill:#FFFFFF; fill-opacity:1.0; 
stroke:#FFFFFF; stroke-width:0; stroke-opacity:1; 
stroke-linecap:round; stroke-linejoin:round;fill-rule:evenodd;"
d="M 61164,19135
61164,19764
60535,19764
60535,19135
61164,19135
Z" /> 
<circle cx="58881.5" cy="19450" r="314.961" /> 
</g>
<g style="fill:#FFFFFF; fill-opacity:1.0; 
stroke:#FFFFFF; stroke-width:39.3701; stroke-opacity:1; 
stroke-linecap:round; stroke-linejoin:round;">
</g>
<g >
</g>
<g style="fill:#FFFFFF; fill-opacity:1.0; 
stroke:#FFFFFF; stroke-width:0; stroke-opacity:1; 
stroke-linecap:round; stroke-linejoin:round;">
<path style="fill:#FFFFFF; fill-opacity:1.0; 
stroke:#FFFFFF; stroke-width:0; stroke-opacity:1; 
stroke-linecap:round; stroke-linejoin:round;fill-rule:evenodd;"
d="M 65585,29785
66214,29785
66214,30414
65585,30414
65585,29785
Z" /> 
<circle cx="65900" cy="32068.5" r="314.961" /> 
</g>
<g style="fill:#FFFFFF; fill-opacity:1.0; 
stroke:#FFFFFF; stroke-width:39.3701; stroke-opacity:1; 
stroke-linecap:round; stroke-linejoin:round;">
</g>
<g >
</g>
<g style="fill:#FFFFFF; fill-opacity:1.0; 
stroke:#FFFFFF; stroke-width:0; stroke-opacity:1; 
stroke-linecap:round; stroke-linejoin:round;">
<circle cx="57800" cy="30081.5" r="314.961" /> 
</g>
<g style="fill:#FFFFFF; fill-opacity:1.0; 
stroke:#FFFFFF; stroke-width:39.3701; stroke-opacity:1; 
stroke-linecap:round; stroke-linejoin:round;">
</g>
<g style="fill:#FFFFFF; fill-opacity:1.0; 
stroke:#FFFFFF; stroke-width:0; stroke-opacity:1; 
stroke-linecap:round; stroke-linejoin:round;">
<path style="fill:#FFFFFF; fill-opacity:1.0; 
stroke:#FFFFFF; stroke-width:0; stroke-opacity:1; 
stroke-linecap:round; stroke-linejoin:round;fill-rule:evenodd;"
d="M 58114,32364
57485,32364
57485,31735
58114,31735
58114,32364
Z" /> 
</g>
<g >
</g>
<g >
</g>
<g style="fill:#FFFFFF; fill-opacity:1.0; 
stroke:#FFFFFF; stroke-width:196.85; stroke-opacity:1; 
stroke-linecap:round; stroke-linejoin:round;">
</g>
<g style="fill:#FFFFFF; fill-opacity:0.0; 
stroke:#FFFFFF; stroke-width:196.85; stroke-opacity:1; 
stroke-linecap:round; stroke-linejoin:round;">
<path d="M59345 28350
L58900 28350
" />
<path d="M60661 28350
L59345 28350
" />
<path d="M62250 26761
L60661 28350
" />
<path d="M62250 26250
L62250 26761
" />
<path d="M52421 20758
L52212 20550
" />
<path d="M52421 24200
L52421 20758
" />
<path d="M58081 18650
L58881 19450
" />
<path d="M52212 20550
L54112 18650
" />
<path d="M54112 18650
L58081 18650
" />
<path d="M62919 26250
L62250 26250
" />
<path d="M63459 25709
L62919 26250
" />
<path d="M63459 24659
L63459 25709
" />
<path d="M62250 24250
L63050 24250
" />
<path d="M63050 24250
L63459 24659
" />
<path d="M58900 28981
L58900 28350
" />
<path d="M57800 30081
L58900 28981
" />
<path d="M58900 28800
L58900 28350
" />
<path d="M61150 31050
L58900 28800
" />
<path d="M72168 28781
L72168 20750
" />
<path d="M69500 31450
L72168 28781
" />
<path d="M68909 32040
L67959 32040
" />
<path d="M69500 31450
L68909 32040
" />
<path d="M67959 32040
L67000 33000
" />
<path d="M67000 33000
L56600 33000
" />
<path d="M56600 33000
L55800 32200
" />
<path d="M55800 32200
L55800 31400
" />
<path d="M56481 31400
L57800 30081
" />
<path d="M55800 31400
L56481 31400
" />
<path d="M53412 28350
L54200 28350
" />
<path d="M52421 27359
L53412 28350
" />
<path d="M52421 24200
L52421 27359
" />
<path d="M53250 28350
L54200 28350
" />
<path d="M53000 28600
L53250 28350
" />
<path d="M53000 31000
L53000 28600
" />
<path d="M55800 31400
L53400 31400
" />
<path d="M53400 31400
L53000 31000
" />
<path d="M58600 21600
L58600 21812
" />
<path d="M54392 21690
L55200 20882
" />
<path d="M54392 22231
L54392 21690
" />
<path d="M55200 20882
L55200 20200
" />
<path d="M55200 20200
L55800 19600
" />
<path d="M55800 19600
L56600 19600
" />
<path d="M56600 19600
L58600 21600
" />
</g>
<g style="fill:#FFFFFF; fill-opacity:0.0; 
stroke:#FFFFFF; stroke-width:275.591; stroke-opacity:1; 
stroke-linecap:round; stroke-linejoin:round;">
<path d="M66355 25250
L65250 25250
" />
<path d="M69350 23200
L68405 23200
" />
<path d="M68405 23200
L66355 25250
" />
</g>
<g style="fill:#FFFFFF; fill-opacity:0.0; 
stroke:#FFFFFF; stroke-width:196.85; stroke-opacity:1; 
stroke-linecap:round; stroke-linejoin:round;">
<path d="M69500 25350
L69350 25200
" />
<path d="M69500 29450
L69500 25350
" />
<path d="M69950 25200
L69350 25200
" />
<path d="M70950 24200
L69950 25200
" />
<path d="M70950 22011
L70950 24200
" />
<path d="M70200 20750
L70200 21261
" />
<path d="M70200 21261
L70950 22011
" />
<path d="M59950 24021
L60584 23387
" />
<path d="M59950 24750
L59950 24021
" />
<path d="M62250 25250
L62407 25250
" />
<path d="M61418 25250
L59950 26718
" />
<path d="M62250 25250
L61418 25250
" />
<path d="M61418 22007
L61418 25250
" />
<path d="M61224 21812
L61418 22007
" />
<path d="M60584 21812
L61224 21812
" />
<path d="M64881 28350
L64931 28300
" />
<path d="M63900 28350
L64881 28350
" />
<path d="M66900 27788
L66900 28300
" />
<path d="M66900 27742
L66900 27788
" />
<path d="M65407 26250
L66900 27742
" />
<path d="M65250 26250
L65407 26250
" />
<path d="M66388 28300
L66900 28300
" />
<path d="M65900 28788
L66388 28300
" />
<path d="M65900 30100
L65900 28788
" />
<path d="M66912 21168
L66050 21168
" />
<path d="M68300 19781
L66912 21168
" />
<path d="M68300 22261
L68300 21750
" />
<path d="M67311 23250
L68300 22261
" />
<path d="M65250 23250
L67311 23250
" />
<path d="M61361 19450
L61711 19100
" />
<path d="M60850 19450
L61361 19450
" />
<path d="M61711 19100
L63150 19100
" />
<path d="M63150 19100
L63900 19850
" />
<path d="M63900 19850
L63900 23600
" />
<path d="M64550 24250
L65250 24250
" />
<path d="M63900 23600
L64550 24250
" />
<path d="M64881 31050
L65900 32068
" />
<path d="M63150 31050
L64881 31050
" />
<path d="M58311 32050
L57800 32050
" />
<path d="M58561 32300
L58311 32050
" />
<path d="M62687 32300
L58561 32300
" />
<path d="M63150 31837
L62687 32300
" />
<path d="M63150 31050
L63150 31837
" />
<path d="M58200 22600
L58600 22600
" />
<path d="M56150 20550
L58200 22600
" />
<path d="M55000 19200
L54181 20018
" />
<path d="M57200 19200
L55000 19200
" />
<path d="M59600 21600
L57200 19200
" />
<path d="M60441 22600
L59600 21758
" />
<path d="M59600 21758
L59600 21600
" />
<path d="M60584 22600
L60441 22600
" />
<path d="M54181 20018
L54181 20550
" />
<path d="M62112 23112
L62250 23250
" />
<path d="M62112 20184
L62112 23112
" />
<path d="M54200 30350
L55250 30350
" />
<path d="M58600 27000
L58600 23387
" />
<path d="M55250 30350
L58600 27000
" />
</g>
<g >
</g>
<g style="fill:#FFFFFF; fill-opacity:1.0; 
stroke:#FFFFFF; stroke-width:236.22; stroke-opacity:1; 
stroke-linecap:round; stroke-linejoin:round;">
<path style="fill:#FFFFFF; fill-opacity:1.0; 
stroke:#FFFFFF; stroke-width:236.22; stroke-opacity:1; 
stroke-linecap:round; stroke-linejoin:round;fill-rule:evenodd;"
d="M 69836,19703
73081,19703
73081,31649
71074,31649
71074,33481
51318,33481
51318,31457
52900,31457
52900,30256
53255,30256
53255,30443
53291,30625
53362,30797
53466,30952
53597,31083
53752,31187
53924,31258
54106,31294
54293,31294
54475,31258
54647,31187
54802,31083
54855,31030
60161,31030
60176,31224
60229,31410
60317,31583
60338,31615
60506,31665
61122,31050
61177,31050
61793,31665
61961,31615
62056,31446
62116,31261
62138,31069
62123,30875
62070,30689
61982,30516
61961,30484
61793,30434
61177,31050
61122,31050
60506,30434
60338,30484
60243,30653
60183,30838
60161,31030
54855,31030
54933,30952
55033,30802
55227,30802
55250,30804
55272,30802
55272,30802
55338,30796
55424,30770
55502,30728
55571,30671
55585,30654
55711,30529
57380,30529
57397,30668
57519,30736
57652,30778
57791,30793
57930,30781
58064,30742
58188,30678
58202,30668
58219,30529
57800,30109
57380,30529
55711,30529
56167,30073
57087,30073
57100,30212
57138,30346
57203,30470
57212,30483
57352,30501
57772,30081
57827,30081
58247,30501
58387,30483
58430,30406
60534,30406
61150,31022
61765,30406
61715,30238
61546,30143
61361,30083
61169,30061
60975,30076
60789,30129
60616,30217
60584,30238
60534,30406
58430,30406
58454,30361
58496,30228
58512,30089
58499,29950
58461,29816
58396,29692
58387,29679
58247,29661
57827,30081
57772,30081
57352,29661
57212,29679
57145,29801
57103,29934
57087,30073
56167,30073
56606,29633
57380,29633
57800,30053
58219,29633
58202,29494
58080,29426
57947,29384
57808,29369
57669,29381
57535,29420
57411,29484
57397,29494
57380,29633
56606,29633
57760,28480
58203,28480
58206,28496
58248,28628
58315,28750
58404,28856
58513,28943
58636,29007
58769,29046
58880,28959
58880,28369
58919,28369
58919,28959
59030,29046
59163,29007
59286,28943
59395,28856
59484,28750
59551,28628
59593,28496
59596,28480
59509,28369
58919,28369
58880,28369
58290,28369
58203,28480
57760,28480
58020,28219
58203,28219
58290,28330
58880,28330
58880,27740
58919,27740
58919,28330
59509,28330
59596,28219
59593,28203
59551,28071
59484,27949
59395,27843
59286,27756
59163,27692
59030,27653
58919,27740
58880,27740
58769,27653
58636,27692
58513,27756
58404,27843
58315,27949
58248,28071
58206,28203
58203,28219
58020,28219
58904,27335
58921,27321
58978,27252
59020,27174
59046,27088
59052,27022
59052,27022
59054,27000
59052,26977
59052,23963
59108,23934
59207,23852
59289,23752
59350,23639
59387,23515
59400,23387
59387,23259
59350,23135
59289,23022
59266,22993
59289,22965
59350,22851
59387,22728
59400,22600
59387,22471
59350,22348
59289,22234
59266,22206
59289,22177
59320,22119
59785,22584
59783,22600
59796,22728
59833,22851
59894,22965
59917,22993
59894,23022
59833,23135
59796,23259
59783,23387
59796,23515
59800,23530
59645,23685
59628,23699
59614,23717
59571,23768
59529,23847
59503,23932
59495,24021
59497,24043
59497,24106
59437,24138
59383,24183
59338,24237
59306,24298
59285,24365
59278,24435
59278,25064
59285,25134
59306,25201
59338,25262
59383,25316
59437,25361
59498,25393
59565,25414
59635,25421
60264,25421
60334,25414
60401,25393
60462,25361
60516,25316
60561,25262
60593,25201
60614,25134
60621,25064
60621,24435
60614,24365
60593,24298
60561,24237
60516,24183
60468,24143
60570,24041
60759,24041
60855,24032
60965,23998
60965,25062
59978,26049
59884,26049
59754,26074
59632,26125
59523,26198
59430,26291
59356,26401
59306,26523
59280,26652
59280,26784
59306,26913
59356,27035
59430,27145
59523,27238
59632,27311
59754,27362
59884,27387
60015,27387
60145,27362
60267,27311
60376,27238
60469,27145
60543,27035
60593,26913
60619,26784
60619,26689
60928,26380
61395,26380
61430,26503
61492,26627
61577,26737
61682,26828
61803,26897
61934,26941
62072,26958
62230,26958
62230,26269
62269,26269
62269,26958
62427,26958
62565,26941
62696,26897
62817,26828
62922,26737
63007,26627
63069,26503
63104,26380
63017,26269
62269,26269
62230,26269
61482,26269
61395,26380
60928,26380
61601,25707
61616,25725
61618,25727
61577,25762
61492,25872
61430,25996
61395,26119
61482,26230
62230,26230
62230,26222
62269,26222
62269,26230
63017,26230
63104,26119
63069,25996
63007,25872
62922,25762
62881,25727
62883,25725
62966,25623
63028,25507
63067,25381
63080,25250
63067,25118
63028,24992
62966,24876
62883,24774
62881,24772
62922,24737
63007,24627
63069,24503
63104,24380
63017,24269
62269,24269
62269,24277
62230,24277
62230,24269
62222,24269
62222,24230
62230,24230
62230,24222
62269,24222
62269,24230
63017,24230
63104,24119
63069,23996
63007,23872
62968,23821
62974,23816
63018,23762
63051,23701
63071,23634
63078,23564
63078,22935
63071,22865
63051,22798
63018,22737
62974,22683
62920,22638
62858,22606
62791,22585
62722,22578
62565,22578
62565,20861
62632,20817
62746,20703
62835,20570
62896,20421
62927,20264
62927,20103
62896,19946
62835,19798
62746,19664
62634,19552
62962,19552
63447,20037
63447,23577
63445,23600
63447,23622
63453,23688
63479,23774
63521,23852
63578,23921
63595,23935
64214,24554
64228,24571
64245,24585
64297,24628
64375,24670
64461,24696
64550,24704
64572,24702
64598,24702
64616,24725
64646,24750
64616,24774
64533,24876
64471,24992
64432,25118
64419,25250
64432,25381
64471,25507
64533,25623
64616,25725
64646,25750
64616,25774
64533,25876
64471,25992
64432,26118
64419,26250
64432,26381
64471,26507
64533,26623
64616,26725
64718,26809
64835,26871
64961,26909
65059,26919
65436,26919
66295,27778
66288,27787
66256,27848
66250,27868
66214,27879
66135,27921
66066,27978
66052,27995
65595,28452
65581,28464
65600,28365
65600,28234
65575,28104
65524,27982
65451,27873
65358,27780
65248,27706
65126,27656
64997,27630
64865,27630
64736,27656
64614,27706
64504,27780
64411,27873
64395,27897
64393,27897
64326,27830
64217,27756
64095,27706
63965,27680
63834,27680
63704,27706
63582,27756
63473,27830
63380,27923
63306,28032
63256,28154
63230,28284
63230,28415
63256,28545
63299,28649
62299,28649
62299,30218
62263,30261
62230,30323
62210,30389
62203,30459
62203,31640
62210,31710
62230,31776
62263,31838
62270,31847
61719,31847
61765,31693
61150,31077
60534,31693
60580,31847
58749,31847
58647,31745
58633,31728
58564,31671
58485,31629
58449,31618
58443,31598
58411,31537
58366,31483
58312,31438
58251,31406
58184,31385
58114,31378
57485,31378
57415,31385
57348,31406
57287,31438
57233,31483
57188,31537
57156,31598
57135,31665
57128,31735
57128,32364
57135,32434
57156,32501
57188,32562
57233,32616
57287,32661
57348,32693
57415,32714
57485,32721
58114,32721
58184,32714
58251,32693
58297,32669
58309,32678
58338,32693
58387,32720
58473,32746
58561,32754
58584,32752
62665,32752
62687,32754
62709,32752
62709,32752
62776,32746
62861,32720
62940,32678
63009,32621
63023,32604
63454,32173
63471,32159
63499,32125
63528,32090
63563,32023
63570,32011
63574,31996
63740,31996
63810,31989
63876,31969
63938,31936
63992,31892
64036,31838
64069,31776
64089,31710
64096,31640
64096,31502
64693,31502
65230,32039
65230,32134
65256,32263
65306,32385
65380,32495
65473,32588
65582,32661
65704,32712
65834,32737
65965,32737
66095,32712
66217,32661
66326,32588
66419,32495
66493,32385
66543,32263
66569,32134
66569,32093
68884,32093
68934,32261
69103,32356
69288,32416
69480,32438
69674,32423
69860,32370
70033,32282
70065,32261
70115,32093
69500,31477
68884,32093
66569,32093
66569,32002
66543,31873
66493,31751
66419,31641
66326,31548
66217,31475
66109,31430
68511,31430
68526,31624
68579,31810
68667,31983
68688,32015
68856,32065
69472,31450
69527,31450
70143,32065
70311,32015
70406,31846
70466,31661
70488,31469
70473,31275
70420,31089
70332,30916
70311,30884
70143,30834
69527,31450
69472,31450
68856,30834
68688,30884
68593,31053
68533,31238
68511,31430
66109,31430
66095,31424
65965,31399
65871,31399
65278,30806
68884,30806
69500,31422
70115,30806
70065,30638
69896,30543
69711,30483
69519,30461
69325,30476
69139,30529
68966,30617
68934,30638
68884,30806
65278,30806
65217,30745
65203,30728
65134,30671
65055,30629
64970,30603
64903,30597
64903,30597
64881,30595
64859,30597
64100,30597
64100,28991
64217,28943
64326,28869
64393,28802
64487,28802
64504,28819
64614,28893
64736,28943
64865,28969
64997,28969
65126,28943
65248,28893
65358,28819
65451,28726
65445,28788
65447,28810
65447,29456
65387,29488
65333,29533
65288,29587
65256,29648
65235,29715
65228,29785
65228,30414
65235,30484
65256,30551
65288,30612
65333,30666
65387,30711
65448,30743
65515,30764
65585,30771
66214,30771
66284,30764
66351,30743
66412,30711
66466,30666
66511,30612
66543,30551
66564,30484
66571,30414
66571,29785
66564,29715
66543,29648
66511,29587
66466,29533
66412,29488
66352,29456
66352,28975
66406,28921
66448,28943
66515,28964
66585,28971
67214,28971
67284,28964
67351,28943
67412,28911
67466,28866
67511,28812
67543,28751
67564,28684
67571,28614
67571,27985
67564,27915
67543,27848
67511,27787
67466,27733
67412,27688
67351,27656
67346,27654
67346,27653
67320,27568
67278,27489
67249,27454
67221,27420
67204,27406
66077,26279
66080,26250
66067,26118
66028,25992
65966,25876
65883,25774
65853,25750
65862,25742
66330,25742
66355,25744
66379,25742
66379,25742
66451,25735
66544,25706
66629,25661
66704,25599
66720,25580
67101,25200
68322,25200
68337,25354
68382,25502
68455,25639
68554,25759
68674,25857
68810,25930
68959,25976
69047,25984
69047,28503
68909,28503
68839,28510
68773,28530
68711,28563
68657,28607
68613,28661
68580,28723
68560,28789
68553,28859
68553,30040
68560,30110
68580,30176
68613,30238
68657,30292
68711,30336
68773,30369
68839,30389
68909,30396
70090,30396
70160,30389
70226,30369
70288,30336
70342,30292
70386,30238
70419,30176
70439,30110
70446,30040
70446,28859
70439,28789
70419,28723
70386,28661
70342,28607
70288,28563
70226,28530
70160,28510
70090,28503
69952,28503
69952,25896
70025,25857
70145,25759
70244,25639
70317,25502
70330,25460
71254,24535
71271,24521
71287,24503
71328,24452
71328,24452
71370,24374
71396,24288
71402,24222
71402,24222
71404,24200
71402,24177
71402,22034
71404,22011
71402,21989
71402,21989
71396,21923
71370,21837
71328,21759
71271,21690
71254,21675
70821,21243
70843,21201
70844,21197
71748,21197
71766,21337
71888,21404
72021,21446
72160,21462
72299,21449
72433,21411
72557,21346
72570,21337
72588,21197
72168,20777
71748,21197
70844,21197
70864,21134
70871,21064
70871,20741
71456,20741
71468,20880
71507,21014
71571,21138
71581,21152
71720,21169
72140,20750
72196,20750
72616,21169
72755,21152
72823,21030
72865,20897
72880,20758
72868,20619
72829,20485
72765,20361
72755,20347
72616,20330
72196,20750
72140,20750
71720,20330
71581,20347
71513,20469
71471,20602
71456,20741
70871,20741
70871,20435
70864,20365
70844,20302
71748,20302
72168,20722
72588,20302
72570,20162
72448,20095
72315,20053
72176,20037
72037,20050
71903,20088
71779,20153
71766,20162
71748,20302
70844,20302
70843,20298
70811,20237
70766,20183
70712,20138
70651,20106
70584,20085
70514,20078
69885,20078
69815,20085
69748,20106
69687,20138
69633,20183
69588,20237
69556,20298
69535,20365
69528,20435
69528,21064
69535,21134
69556,21201
69588,21262
69633,21316
69687,21361
69748,21393
69768,21399
69779,21435
69821,21514
69878,21583
69895,21597
70497,22199
70497,24012
69987,24521
69889,24469
69740,24423
69624,24412
69075,24412
68959,24423
68810,24469
68674,24542
68554,24640
68455,24760
68382,24897
68337,25045
68322,25200
67101,25200
68548,23752
68554,23759
68674,23857
68810,23930
68959,23976
69075,23987
69624,23987
69740,23976
69889,23930
70025,23857
70145,23759
70244,23639
70317,23502
70362,23354
70377,23200
70362,23045
70317,22897
70244,22760
70145,22640
70025,22542
69889,22469
69740,22423
69624,22412
69075,22412
68959,22423
68810,22469
68674,22542
68594,22607
68604,22597
68621,22583
68678,22514
68720,22435
68731,22399
68751,22393
68812,22361
68866,22316
68911,22262
68943,22201
68964,22134
68971,22064
68971,21435
68964,21365
68943,21298
68911,21237
68866,21183
68812,21138
68751,21106
68684,21085
68614,21078
67985,21078
67915,21085
67848,21106
67787,21138
67733,21183
67688,21237
67656,21298
67635,21365
67628,21435
67628,22064
67635,22134
67656,22201
67678,22243
67124,22797
65901,22797
65883,22774
65781,22690
65664,22628
65538,22590
65440,22580
65059,22580
64961,22590
64835,22628
64718,22690
64616,22774
64533,22876
64471,22992
64432,23118
64419,23250
64432,23381
64471,23507
64498,23557
64352,23412
64352,21088
65235,21088
65235,21248
65266,21406
65327,21554
65416,21688
65530,21801
65663,21890
65812,21952
65969,21983
66130,21983
66287,21952
66436,21890
66569,21801
66683,21688
66727,21621
66890,21621
66912,21623
66935,21621
66935,21621
67001,21614
67087,21588
67165,21546
67234,21490
67248,21472
68271,20450
68365,20450
68495,20425
68617,20374
68726,20301
68819,20208
68893,20098
68943,19976
68969,19847
68969,19715
68943,19586
68893,19464
68819,19354
68726,19261
68617,19188
68495,19137
68365,19112
68234,19112
68104,19137
67982,19188
67873,19261
67780,19354
67706,19464
67656,19586
67630,19715
67630,19810
66726,20714
66683,20648
66569,20535
66436,20446
66287,20384
66130,20353
65969,20353
65812,20384
65663,20446
65530,20535
65416,20648
65327,20782
65266,20930
65235,21088
64352,21088
64352,19872
64354,19850
64352,19827
64352,19827
64346,19761
64320,19675
64278,19597
64221,19528
64204,19514
63810,19119
65235,19119
65235,19280
65266,19437
65327,19586
65416,19719
65530,19833
65663,19922
65812,19983
65969,20014
66130,20014
66287,19983
66436,19922
66569,19833
66683,19719
66772,19586
66833,19437
66864,19280
66864,19119
66833,18962
66772,18813
66683,18680
66569,18566
66436,18477
66287,18416
66130,18385
65969,18385
65812,18416
65663,18477
65530,18566
65416,18680
65327,18813
65266,18962
65235,19119
63810,19119
63485,18795
63471,18778
63402,18721
63324,18679
63238,18653
63172,18647
63172,18647
63150,18645
63127,18647
61734,18647
61711,18645
61689,18647
61689,18647
61623,18653
61537,18679
61459,18721
61390,18778
61375,18795
61343,18828
61301,18806
61234,18785
61164,18778
60535,18778
60465,18785
60398,18806
60337,18838
60283,18883
60238,18937
60206,18998
60185,19065
60178,19135
60178,19764
60185,19834
60206,19901
60238,19962
60283,20016
60337,20061
60398,20093
60465,20114
60535,20121
61164,20121
61234,20114
61299,20094
61298,20103
61298,20264
61329,20421
61390,20570
61479,20703
61593,20817
61660,20861
61660,21608
61559,21508
61545,21490
61476,21434
61398,21392
61312,21366
61246,21359
61246,21359
61224,21357
61202,21359
61192,21347
61092,21265
60978,21205
60855,21167
60759,21158
60409,21158
60313,21167
60189,21205
60076,21265
59977,21346
59935,21295
59921,21278
59904,21264
58793,20153
58873,20162
59012,20149
59146,20111
59270,20046
59283,20037
59301,19897
58881,19477
58875,19483
58848,19455
58853,19450
58909,19450
59329,19869
59468,19852
59536,19730
59578,19597
59593,19458
59581,19319
59542,19185
59478,19061
59468,19047
59329,19030
58909,19450
58853,19450
58433,19030
58294,19047
58226,19169
58184,19302
58169,19441
58177,19537
57642,19002
58461,19002
58881,19422
59301,19002
59283,18862
59161,18795
59028,18753
58889,18737
58750,18750
58616,18788
58492,18853
58479,18862
58461,19002
57642,19002
57535,18895
57521,18878
57452,18821
57374,18779
57288,18753
57222,18747
57222,18747
57200,18745
57177,18747
55022,18747
55000,18745
54977,18747
54977,18747
54911,18753
54825,18779
54747,18821
54678,18878
54664,18895
53877,19682
53859,19696
53803,19765
53761,19844
53758,19852
53661,19916
53548,20030
53459,20163
53397,20312
53366,20469
53366,20630
53397,20787
53459,20936
53548,21069
53661,21183
53795,21272
53943,21333
54080,21360
54070,21368
54014,21437
53972,21516
53965,21537
53911,21542
53779,21582
53657,21647
53551,21734
53464,21841
53399,21962
53359,22094
53345,22231
53359,22368
53399,22500
53464,22621
53547,22723
53464,22825
53399,22947
53359,23078
53345,23215
53359,23352
53399,23484
53464,23605
53551,23712
53657,23799
53779,23864
53911,23904
54013,23914
54771,23914
54874,23904
55005,23864
55127,23799
55233,23712
55320,23605
55385,23484
55425,23352
55439,23215
55425,23078
55385,22947
55320,22825
55237,22723
55320,22621
55385,22500
55425,22368
55439,22231
55425,22094
55385,21962
55320,21841
55233,21734
55127,21647
55093,21629
55504,21218
55521,21204
55578,21135
55579,21132
55630,21183
55763,21272
55912,21333
56069,21364
56230,21364
56309,21349
57864,22904
57878,22921
57893,22934
57910,22965
57933,22993
57910,23022
57849,23135
57812,23259
57799,23387
57812,23515
57849,23639
57910,23752
57992,23852
58091,23934
58147,23963
58147,26812
55062,29897
55033,29897
54933,29747
54802,29616
54647,29512
54475,29441
54293,29405
54106,29405
53924,29441
53752,29512
53597,29616
53466,29747
53362,29902
53291,30074
53255,30256
52900,30256
52900,29449
51318,29449
51318,28940
53213,28940
53221,29017
53243,29091
53280,29160
53329,29220
53389,29269
53458,29306
53532,29328
53609,29336
54081,29334
54180,29235
54180,28369
54219,28369
54219,29235
54318,29334
54790,29336
54867,29328
54941,29306
55010,29269
55070,29220
55119,29160
55156,29091
55178,29017
55186,28940
55184,28468
55085,28369
54219,28369
54180,28369
53314,28369
53215,28468
53213,28940
51318,28940
51318,27759
53213,27759
53215,28231
53314,28330
54180,28330
54180,27464
54219,27464
54219,28330
55085,28330
55184,28231
55186,27759
55178,27682
55156,27608
55119,27539
55070,27479
55010,27430
54941,27393
54867,27371
54790,27363
54318,27365
54219,27464
54180,27464
54081,27365
53609,27363
53532,27371
53458,27393
53389,27430
53329,27479
53280,27539
53243,27608
53221,27682
53213,27759
51318,27759
51318,24888
51533,24888
51541,24966
51564,25040
51600,25108
51649,25168
51709,25217
51778,25254
51852,25276
51929,25284
52303,25282
52401,25184
52401,24219
52441,24219
52441,25184
52539,25282
52913,25284
52990,25276
53065,25254
53133,25217
53174,25184
53345,25184
53359,25321
53399,25452
53464,25574
53547,25676
53464,25778
53399,25899
53359,26031
53345,26168
53359,26305
53399,26437
53464,26558
53551,26665
53657,26752
53779,26817
53911,26857
54013,26867
54771,26867
54874,26857
55005,26817
55127,26752
55233,26665
55320,26558
55385,26437
55425,26305
55439,26168
55425,26031
55385,25899
55320,25778
55237,25676
55320,25574
55385,25452
55425,25321
55439,25184
55425,25047
55385,24915
55320,24794
55233,24687
55127,24600
55005,24535
54874,24495
54771,24485
54013,24485
53911,24495
53779,24535
53657,24600
53551,24687
53464,24794
53399,24915
53359,25047
53345,25184
53174,25184
53193,25168
53242,25108
53279,25040
53301,24966
53309,24888
53307,24318
53209,24219
52441,24219
52401,24219
51634,24219
51535,24318
51533,24888
51318,24888
51318,23511
51533,23511
51535,24081
51634,24180
52401,24180
52401,23215
52441,23215
52441,24180
53209,24180
53307,24081
53309,23511
53301,23433
53279,23359
53242,23291
53193,23231
53133,23182
53065,23145
52990,23123
52913,23115
52539,23117
52441,23215
52401,23215
52303,23117
51929,23115
51852,23123
51778,23145
51709,23182
51649,23231
51600,23291
51564,23359
51541,23433
51533,23511
51318,23511
51318,21101
51689,21101
51724,21255
51871,21337
52031,21389
52198,21408
52366,21394
52528,21348
52678,21271
52701,21255
52736,21101
52212,20577
51689,21101
51318,21101
51318,20535
51354,20535
51368,20703
51414,20865
51491,21015
51507,21038
51661,21073
52185,20550
52240,20550
52764,21073
52918,21038
53000,20891
53052,20731
53071,20564
53057,20396
53011,20234
52934,20084
52918,20061
52764,20026
52240,20550
52185,20550
51661,20026
51507,20061
51425,20208
51373,20368
51354,20535
51318,20535
51318,19998
51689,19998
52212,20522
52736,19998
52701,19844
52554,19762
52394,19710
52227,19691
52059,19705
51897,19751
51747,19828
51724,19844
51689,19998
51318,19998
51318,18118
69836,18118
69836,19703
Z" /> 
</g>
</g>
<g style="fill:#000000; fill-opacity:1.0; 
stroke:#000000; stroke-width:236.22; stroke-opacity:1; 
stroke-linecap:round; stroke-linejoin:round;">
</g>
<g style="fill:#000000; fill-opacity:1.0; 
stroke:#000000; stroke-width:0; stroke-opacity:1; 
stroke-linecap:round; stroke-linejoin:round;">
<circle cx="66050" cy="19200" r="255.906" /> 
</g>
<g style="fill:#000000; fill-opacity:1.0; 
stroke:#000000; stroke-width:39.3701; stroke-opacity:1; 
stroke-linecap:round; stroke-linejoin:round;">
</g>
<g style="fill:#000000; fill-opacity:1.0; 
stroke:#000000; stroke-width:0; stroke-opacity:1; 
stroke-linecap:round; stroke-linejoin:round;">
<circle cx="62113" cy="20184.3" r="255.906" /> 
</g>
<g style="fill:#000000; fill-opacity:1.0; 
stroke:#000000; stroke-width:39.3701; stroke-opacity:1; 
stroke-linecap:round; stroke-linejoin:round;">
</g>
<g style="fill:#000000; fill-opacity:1.0; 
stroke:#000000; stroke-width:0; stroke-opacity:1; 
stroke-linecap:round; stroke-linejoin:round;">
<circle cx="66050" cy="21168.5" r="255.906" /> 
</g>
<g style="fill:#000000; fill-opacity:1.0; 
stroke:#000000; stroke-width:39.3701; stroke-opacity:1; 
stroke-linecap:round; stroke-linejoin:round;">
</g>
<g style="fill:#000000; fill-opacity:1.0; 
stroke:#000000; stroke-width:0; stroke-opacity:1; 
stroke-linecap:round; stroke-linejoin:round;">
<circle cx="72168.5" cy="20750" r="157.48" /> 
</g>
<g style="fill:#000000; fill-opacity:1.0; 
stroke:#000000; stroke-width:39.3701; stroke-opacity:1; 
stroke-linecap:round; stroke-linejoin:round;">
</g>
<g style="fill:#000000; fill-opacity:1.0; 
stroke:#000000; stroke-width:0; stroke-opacity:1; 
stroke-linecap:round; stroke-linejoin:round;">
<circle cx="70200" cy="20750" r="157.48" /> 
</g>
<g style="fill:#000000; fill-opacity:1.0; 
stroke:#000000; stroke-width:39.3701; stroke-opacity:1; 
stroke-linecap:round; stroke-linejoin:round;">
</g>
<g style="fill:#000000; fill-opacity:1.0; 
stroke:#000000; stroke-width:0; stroke-opacity:1; 
stroke-linecap:round; stroke-linejoin:round;">
<circle cx="59950" cy="26718.5" r="157.48" /> 
</g>
<g style="fill:#000000; fill-opacity:1.0; 
stroke:#000000; stroke-width:39.3701; stroke-opacity:1; 
stroke-linecap:round; stroke-linejoin:round;">
</g>
<g style="fill:#000000; fill-opacity:1.0; 
stroke:#000000; stroke-width:0; stroke-opacity:1; 
stroke-linecap:round; stroke-linejoin:round;">
<circle cx="59950" cy="24750" r="157.48" /> 
</g>
<g style="fill:#000000; fill-opacity:1.0; 
stroke:#000000; stroke-width:39.3701; stroke-opacity:1; 
stroke-linecap:round; stroke-linejoin:round;">
</g>
<g style="fill:#000000; fill-opacity:1.0; 
stroke:#000000; stroke-width:0; stroke-opacity:1; 
stroke-linecap:round; stroke-linejoin:round;">
<circle cx="52421.7" cy="24200" r="236.22" /> 
</g>
<g style="fill:#000000; fill-opacity:1.0; 
stroke:#000000; stroke-width:39.3701; stroke-opacity:1; 
stroke-linecap:round; stroke-linejoin:round;">
</g>
<g style="fill:#000000; fill-opacity:1.0; 
stroke:#000000; stroke-width:0; stroke-opacity:1; 
stroke-linecap:round; stroke-linejoin:round;">
<circle cx="54392.5" cy="22231.5" r="236.22" /> 
</g>
<g style="fill:#000000; fill-opacity:1.0; 
stroke:#000000; stroke-width:39.3701; stroke-opacity:1; 
stroke-linecap:round; stroke-linejoin:round;">
</g>
<g style="fill:#000000; fill-opacity:1.0; 
stroke:#000000; stroke-width:0; stroke-opacity:1; 
stroke-linecap:round; stroke-linejoin:round;">
<circle cx="54392.5" cy="26168.5" r="236.22" /> 
</g>
<g style="fill:#000000; fill-opacity:1.0; 
stroke:#000000; stroke-width:39.3701; stroke-opacity:1; 
stroke-linecap:round; stroke-linejoin:round;">
</g>
<g style="fill:#000000; fill-opacity:1.0; 
stroke:#000000; stroke-width:0; stroke-opacity:1; 
stroke-linecap:round; stroke-linejoin:round;">
<circle cx="54392.5" cy="23215.7" r="236.22" /> 
</g>
<g style="fill:#000000; fill-opacity:1.0; 
stroke:#000000; stroke-width:39.3701; stroke-opacity:1; 
stroke-linecap:round; stroke-linejoin:round;">
</g>
<g style="fill:#000000; fill-opacity:1.0; 
stroke:#000000; stroke-width:0; stroke-opacity:1; 
stroke-linecap:round; stroke-linejoin:round;">
<circle cx="54392.5" cy="25184.3" r="236.22" /> 
</g>
<g style="fill:#000000; fill-opacity:1.0; 
stroke:#000000; stroke-width:39.3701; stroke-opacity:1; 
stroke-linecap:round; stroke-linejoin:round;">
</g>
<g style="fill:#000000; fill-opacity:1.0; 
stroke:#000000; stroke-width:275.591; stroke-opacity:1; 
stroke-linecap:round; stroke-linejoin:round;">
</g>
<g style="fill:#000000; fill-opacity:0.0; 
stroke:#000000; stroke-width:275.591; stroke-opacity:1; 
stroke-linecap:round; stroke-linejoin:round;">
<path d="M69605 23200
L69094 23200
" />
<path d="M69605 25200
L69094 25200
" />
</g>
<g style="fill:#000000; fill-opacity:1.0; 
stroke:#000000; stroke-width:0; stroke-opacity:1; 
stroke-linecap:round; stroke-linejoin:round;">
<circle cx="58600" cy="23387.4" r="157.48" /> 
</g>
<g style="fill:#000000; fill-opacity:1.0; 
stroke:#000000; stroke-width:39.3701; stroke-opacity:1; 
stroke-linecap:round; stroke-linejoin:round;">
</g>
<g style="fill:#000000; fill-opacity:1.0; 
stroke:#000000; stroke-width:0; stroke-opacity:1; 
stroke-linecap:round; stroke-linejoin:round;">
<circle cx="58600" cy="22600" r="157.48" /> 
</g>
<g style="fill:#000000; fill-opacity:1.0; 
stroke:#000000; stroke-width:39.3701; stroke-opacity:1; 
stroke-linecap:round; stroke-linejoin:round;">
</g>
<g style="fill:#000000; fill-opacity:1.0; 
stroke:#000000; stroke-width:0; stroke-opacity:1; 
stroke-linecap:round; stroke-linejoin:round;">
<circle cx="58600" cy="21812.6" r="157.48" /> 
</g>
<g style="fill:#000000; fill-opacity:1.0; 
stroke:#000000; stroke-width:39.3701; stroke-opacity:1; 
stroke-linecap:round; stroke-linejoin:round;">
</g>
<g style="fill:#000000; fill-opacity:1.0; 
stroke:#000000; stroke-width:0; stroke-opacity:1; 
stroke-linecap:round; stroke-linejoin:round;">
<circle cx="60584.3" cy="23387.4" r="157.48" /> 
</g>
<g style="fill:#000000; fill-opacity:1.0; 
stroke:#000000; stroke-width:39.3701; stroke-opacity:1; 
stroke-linecap:round; stroke-linejoin:round;">
</g>
<g style="fill:#000000; fill-opacity:1.0; 
stroke:#000000; stroke-width:0; stroke-opacity:1; 
stroke-linecap:round; stroke-linejoin:round;">
<circle cx="60584.3" cy="22600" r="157.48" /> 
</g>
<g style="fill:#000000; fill-opacity:1.0; 
stroke:#000000; stroke-width:39.3701; stroke-opacity:1; 
stroke-linecap:round; stroke-linejoin:round;">
</g>
<g style="fill:#000000; fill-opacity:1.0; 
stroke:#000000; stroke-width:0; stroke-opacity:1; 
stroke-linecap:round; stroke-linejoin:round;">
<circle cx="60584.3" cy="21812.6" r="157.48" /> 
</g>
<g style="fill:#000000; fill-opacity:1.0; 
stroke:#000000; stroke-width:39.3701; stroke-opacity:1; 
stroke-linecap:round; stroke-linejoin:round;">
</g>
<g style="fill:#000000; fill-opacity:1.0; 
stroke:#000000; stroke-width:0; stroke-opacity:1; 
stroke-linecap:round; stroke-linejoin:round;">
<circle cx="54200" cy="30350" r="299.213" /> 
</g>
<g style="fill:#000000; fill-opacity:1.0; 
stroke:#000000; stroke-width:39.3701; stroke-opacity:1; 
stroke-linecap:round; stroke-linejoin:round;">
</g>
<g style="fill:#000000; fill-opacity:1.0; 
stroke:#000000; stroke-width:0; stroke-opacity:1; 
stroke-linecap:round; stroke-linejoin:round;">
<circle cx="54200" cy="28350" r="299.213" /> 
</g>
<g style="fill:#000000; fill-opacity:1.0; 
stroke:#000000; stroke-width:39.3701; stroke-opacity:1; 
stroke-linecap:round; stroke-linejoin:round;">
</g>
<g style="fill:#000000; fill-opacity:1.0; 
stroke:#000000; stroke-width:0; stroke-opacity:1; 
stroke-linecap:round; stroke-linejoin:round;">
<circle cx="69500" cy="29450" r="299.213" /> 
</g>
<g style="fill:#000000; fill-opacity:1.0; 
stroke:#000000; stroke-width:39.3701; stroke-opacity:1; 
stroke-linecap:round; stroke-linejoin:round;">
</g>
<g style="fill:#000000; fill-opacity:1.0; 
stroke:#000000; stroke-width:0; stroke-opacity:1; 
stroke-linecap:round; stroke-linejoin:round;">
<circle cx="69500" cy="31450" r="299.213" /> 
</g>
<g style="fill:#000000; fill-opacity:1.0; 
stroke:#000000; stroke-width:39.3701; stroke-opacity:1; 
stroke-linecap:round; stroke-linejoin:round;">
</g>
<g style="fill:#000000; fill-opacity:1.0; 
stroke:#000000; stroke-width:0; stroke-opacity:1; 
stroke-linecap:round; stroke-linejoin:round;">
<circle cx="61150" cy="31050" r="299.213" /> 
</g>
<g style="fill:#000000; fill-opacity:1.0; 
stroke:#000000; stroke-width:39.3701; stroke-opacity:1; 
stroke-linecap:round; stroke-linejoin:round;">
</g>
<g style="fill:#000000; fill-opacity:1.0; 
stroke:#000000; stroke-width:0; stroke-opacity:1; 
stroke-linecap:round; stroke-linejoin:round;">
<circle cx="63150" cy="31050" r="299.213" /> 
</g>
<g style="fill:#000000; fill-opacity:1.0; 
stroke:#000000; stroke-width:39.3701; stroke-opacity:1; 
stroke-linecap:round; stroke-linejoin:round;">
</g>
<g style="fill:#000000; fill-opacity:1.0; 
stroke:#000000; stroke-width:0; stroke-opacity:1; 
stroke-linecap:round; stroke-linejoin:round;">
<circle cx="58900" cy="28350" r="157.48" /> 
</g>
<g style="fill:#000000; fill-opacity:1.0; 
stroke:#000000; stroke-width:39.3701; stroke-opacity:1; 
stroke-linecap:round; stroke-linejoin:round;">
</g>
<g style="fill:#000000; fill-opacity:1.0; 
stroke:#000000; stroke-width:0; stroke-opacity:1; 
stroke-linecap:round; stroke-linejoin:round;">
<circle cx="63900" cy="28350" r="157.48" /> 
</g>
<g style="fill:#000000; fill-opacity:1.0; 
stroke:#000000; stroke-width:39.3701; stroke-opacity:1; 
stroke-linecap:round; stroke-linejoin:round;">
</g>
<g style="fill:#000000; fill-opacity:1.0; 
stroke:#000000; stroke-width:0; stroke-opacity:1; 
stroke-linecap:round; stroke-linejoin:round;">
<circle cx="56150" cy="20550" r="255.906" /> 
</g>
<g style="fill:#000000; fill-opacity:1.0; 
stroke:#000000; stroke-width:39.3701; stroke-opacity:1; 
stroke-linecap:round; stroke-linejoin:round;">
</g>
<g style="fill:#000000; fill-opacity:1.0; 
stroke:#000000; stroke-width:0; stroke-opacity:1; 
stroke-linecap:round; stroke-linejoin:round;">
<circle cx="54181.5" cy="20550" r="255.906" /> 
</g>
<g style="fill:#000000; fill-opacity:1.0; 
stroke:#000000; stroke-width:39.3701; stroke-opacity:1; 
stroke-linecap:round; stroke-linejoin:round;">
</g>
<g style="fill:#000000; fill-opacity:1.0; 
stroke:#000000; stroke-width:0; stroke-opacity:1; 
stroke-linecap:round; stroke-linejoin:round;">
<circle cx="52213" cy="20550" r="255.906" /> 
</g>
<g style="fill:#000000; fill-opacity:1.0; 
stroke:#000000; stroke-width:39.3701; stroke-opacity:1; 
stroke-linecap:round; stroke-linejoin:round;">
</g>
<g style="fill:#000000; fill-opacity:1.0; 
stroke:#000000; stroke-width:0; stroke-opacity:1; 
stroke-linecap:round; stroke-linejoin:round;">
<circle cx="65250" cy="23250" r="157.48" /> 
</g>
<g style="fill:#000000; fill-opacity:1.0; 
stroke:#000000; stroke-width:39.3701; stroke-opacity:1; 
stroke-linecap:round; stroke-linejoin:round;">
</g>
<g style="fill:#000000; fill-opacity:1.0; 
stroke:#000000; stroke-width:0; stroke-opacity:1; 
stroke-linecap:round; stroke-linejoin:round;">
<circle cx="62250" cy="26250" r="157.48" /> 
</g>
<g style="fill:#000000; fill-opacity:1.0; 
stroke:#000000; stroke-width:39.3701; stroke-opacity:1; 
stroke-linecap:round; stroke-linejoin:round;">
</g>
<g style="fill:#000000; fill-opacity:1.0; 
stroke:#000000; stroke-width:0; stroke-opacity:1; 
stroke-linecap:round; stroke-linejoin:round;">
<circle cx="65250" cy="24250" r="157.48" /> 
</g>
<g style="fill:#000000; fill-opacity:1.0; 
stroke:#000000; stroke-width:39.3701; stroke-opacity:1; 
stroke-linecap:round; stroke-linejoin:round;">
</g>
<g style="fill:#000000; fill-opacity:1.0; 
stroke:#000000; stroke-width:0; stroke-opacity:1; 
stroke-linecap:round; stroke-linejoin:round;">
<circle cx="62250" cy="25250" r="157.48" /> 
</g>
<g style="fill:#000000; fill-opacity:1.0; 
stroke:#000000; stroke-width:39.3701; stroke-opacity:1; 
stroke-linecap:round; stroke-linejoin:round;">
</g>
<g style="fill:#000000; fill-opacity:1.0; 
stroke:#000000; stroke-width:0; stroke-opacity:1; 
stroke-linecap:round; stroke-linejoin:round;">
<circle cx="65250" cy="25250" r="157.48" /> 
</g>
<g style="fill:#000000; fill-opacity:1.0; 
stroke:#000000; stroke-width:39.3701; stroke-opacity:1; 
stroke-linecap:round; stroke-linejoin:round;">
</g>
<g style="fill:#000000; fill-opacity:1.0; 
stroke:#000000; stroke-width:0; stroke-opacity:1; 
stroke-linecap:round; stroke-linejoin:round;">
<circle cx="62250" cy="24250" r="157.48" /> 
</g>
<g style="fill:#000000; fill-opacity:1.0; 
stroke:#000000; stroke-width:39.3701; stroke-opacity:1; 
stroke-linecap:round; stroke-linejoin:round;">
</g>
<g style="fill:#000000; fill-opacity:1.0; 
stroke:#000000; stroke-width:0; stroke-opacity:1; 
stroke-linecap:round; stroke-linejoin:round;">
<circle cx="65250" cy="26250" r="157.48" /> 
</g>
<g style="fill:#000000; fill-opacity:1.0; 
stroke:#000000; stroke-width:39.3701; stroke-opacity:1; 
stroke-linecap:round; stroke-linejoin:round;">
</g>
<g style="fill:#000000; fill-opacity:1.0; 
stroke:#000000; stroke-width:0; stroke-opacity:1; 
stroke-linecap:round; stroke-linejoin:round;">
<circle cx="62250" cy="23250" r="157.48" /> 
</g>
<g style="fill:#000000; fill-opacity:1.0; 
stroke:#000000; stroke-width:39.3701; stroke-opacity:1; 
stroke-linecap:round; stroke-linejoin:round;">
</g>
<g style="fill:#000000; fill-opacity:1.0; 
stroke:#000000; stroke-width:0; stroke-opacity:1; 
stroke-linecap:round; stroke-linejoin:round;">
<circle cx="66900" cy="28300" r="157.48" /> 
</g>
<g style="fill:#000000; fill-opacity:1.0; 
stroke:#000000; stroke-width:39.3701; stroke-opacity:1; 
stroke-linecap:round; stroke-linejoin:round;">
</g>
<g style="fill:#000000; fill-opacity:1.0; 
stroke:#000000; stroke-width:0; stroke-opacity:1; 
stroke-linecap:round; stroke-linejoin:round;">
<circle cx="64931.5" cy="28300" r="157.48" /> 
</g>
<g style="fill:#000000; fill-opacity:1.0; 
stroke:#000000; stroke-width:39.3701; stroke-opacity:1; 
stroke-linecap:round; stroke-linejoin:round;">
</g>
<g style="fill:#000000; fill-opacity:1.0; 
stroke:#000000; stroke-width:0; stroke-opacity:1; 
stroke-linecap:round; stroke-linejoin:round;">
<circle cx="68300" cy="19781.5" r="157.48" /> 
</g>
<g style="fill:#000000; fill-opacity:1.0; 
stroke:#000000; stroke-width:39.3701; stroke-opacity:1; 
stroke-linecap:round; stroke-linejoin:round;">
</g>
<g style="fill:#000000; fill-opacity:1.0; 
stroke:#000000; stroke-width:0; stroke-opacity:1; 
stroke-linecap:round; stroke-linejoin:round;">
<circle cx="68300" cy="21750" r="157.48" /> 
</g>
<g style="fill:#000000; fill-opacity:1.0; 
stroke:#000000; stroke-width:39.3701; stroke-opacity:1; 
stroke-linecap:round; stroke-linejoin:round;">
</g>
<g style="fill:#000000; fill-opacity:1.0; 
stroke:#000000; stroke-width:0; stroke-opacity:1; 
stroke-linecap:round; stroke-linejoin:round;">
<circle cx="60850" cy="19450" r="157.48" /> 
</g>
<g style="fill:#000000; fill-opacity:1.0; 
stroke:#000000; stroke-width:39.3701; stroke-opacity:1; 
stroke-linecap:round; stroke-linejoin:round;">
</g>
<g style="fill:#000000; fill-opacity:1.0; 
stroke:#000000; stroke-width:0; stroke-opacity:1; 
stroke-linecap:round; stroke-linejoin:round;">
<circle cx="58881.5" cy="19450" r="157.48" /> 
</g>
<g style="fill:#000000; fill-opacity:1.0; 
stroke:#000000; stroke-width:39.3701; stroke-opacity:1; 
stroke-linecap:round; stroke-linejoin:round;">
</g>
<g style="fill:#000000; fill-opacity:1.0; 
stroke:#000000; stroke-width:0; stroke-opacity:1; 
stroke-linecap:round; stroke-linejoin:round;">
<circle cx="65900" cy="30100" r="157.48" /> 
</g>
<g style="fill:#000000; fill-opacity:1.0; 
stroke:#000000; stroke-width:39.3701; stroke-opacity:1; 
stroke-linecap:round; stroke-linejoin:round;">
</g>
<g style="fill:#000000; fill-opacity:1.0; 
stroke:#000000; stroke-width:0; stroke-opacity:1; 
stroke-linecap:round; stroke-linejoin:round;">
<circle cx="65900" cy="32068.5" r="157.48" /> 
</g>
<g style="fill:#000000; fill-opacity:1.0; 
stroke:#000000; stroke-width:39.3701; stroke-opacity:1; 
stroke-linecap:round; stroke-linejoin:round;">
</g>
<g style="fill:#000000; fill-opacity:1.0; 
stroke:#000000; stroke-width:0; stroke-opacity:1; 
stroke-linecap:round; stroke-linejoin:round;">
<circle cx="57800" cy="30081.5" r="157.48" /> 
</g>
<g style="fill:#000000; fill-opacity:1.0; 
stroke:#000000; stroke-width:39.3701; stroke-opacity:1; 
stroke-linecap:round; stroke-linejoin:round;">
</g>
<g style="fill:#000000; fill-opacity:1.0; 
stroke:#000000; stroke-width:0; stroke-opacity:1; 
stroke-linecap:round; stroke-linejoin:round;">
<circle cx="57800" cy="32050" r="157.48" /> 
</g>
<g style="fill:#000000; fill-opacity:1.0; 
stroke:#000000; stroke-width:39.3701; stroke-opacity:1; 
stroke-linecap:round; stroke-linejoin:round;">
</g>
<g style="fill:#FFFFFF; fill-opacity:1.0; 
stroke:#FFFFFF; stroke-width:39.3701; stroke-opacity:1; 
stroke-linecap:round; stroke-linejoin:round;">
</g> 
</svg>
