<?xml version="1.0" standalone="no"?>
 <!DOCTYPE svg PUBLIC "-//W3C//DTD SVG 1.1//EN" 
 "http://www.w3.org/Graphics/SVG/1.1/DTD/svg11.dtd"> 
<svg xmlns="http://www.w3.org/2000/svg" version="1.1" 
    width="29.7002cm" height="21.0007cm" viewBox="0 0 116930 82680 ">
<title>SVG Picture created as PlacaReceptoraSegundaTentativa-B_Mask.svg date 2019/11/26 18:08:40 </title>
  <desc>Picture generated by PCBNEW </desc>
<g style="fill:#000000; fill-opacity:1;stroke:#000000; stroke-opacity:1;
stroke-linecap:round; stroke-linejoin:round; "
 transform="translate(0 0) scale(1 1)">
</g>
<g style="fill:#000000; fill-opacity:0.0; 
stroke:#000000; stroke-width:-0.000393701; stroke-opacity:1; 
stroke-linecap:round; stroke-linejoin:round;">
</g>
<g style="fill:#000000; fill-opacity:1.0; 
stroke:#000000; stroke-width:0; stroke-opacity:1; 
stroke-linecap:round; stroke-linejoin:round;">
<path style="fill:#000000; fill-opacity:1.0; 
stroke:#000000; stroke-width:0; stroke-opacity:1; 
stroke-linecap:round; stroke-linejoin:round;fill-rule:evenodd;"
d="M 65997,31746
66058,31771
66113,31808
66160,31854
66196,31909
66222,31970
66235,32035
66235,32101
66222,32166
66196,32227
66160,32282
66113,32328
66058,32365
65997,32390
65932,32403
65867,32403
65802,32390
65741,32365
65686,32328
65639,32282
65603,32227
65577,32166
65564,32101
65564,32035
65577,31970
65603,31909
65639,31854
65686,31808
65741,31771
65802,31746
65867,31733
65932,31733
65997,31746
Z" /> 
<path style="fill:#000000; fill-opacity:1.0; 
stroke:#000000; stroke-width:0; stroke-opacity:1; 
stroke-linecap:round; stroke-linejoin:round;fill-rule:evenodd;"
d="M 58135,32385
57464,32385
57464,31714
58135,31714
58135,32385
Z" /> 
<path style="fill:#000000; fill-opacity:1.0; 
stroke:#000000; stroke-width:0; stroke-opacity:1; 
stroke-linecap:round; stroke-linejoin:round;fill-rule:evenodd;"
d="M 69619,30851
69678,30862
69789,30908
69889,30975
69974,31060
70041,31160
70087,31271
70110,31389
70110,31510
70087,31628
70041,31739
69974,31839
69889,31924
69789,31991
69678,32037
69619,32048
69560,32060
69439,32060
69380,32048
69321,32037
69210,31991
69110,31924
69025,31839
68958,31739
68912,31628
68889,31510
68889,31389
68912,31271
68958,31160
69025,31060
69110,30975
69210,30908
69321,30862
69380,30851
69439,30839
69560,30839
69619,30851
Z" /> 
<path style="fill:#000000; fill-opacity:1.0; 
stroke:#000000; stroke-width:0; stroke-opacity:1; 
stroke-linecap:round; stroke-linejoin:round;fill-rule:evenodd;"
d="M 61269,30451
61328,30462
61439,30508
61539,30575
61624,30660
61691,30760
61737,30871
61760,30989
61760,31110
61737,31228
61691,31339
61624,31439
61539,31524
61439,31591
61328,31637
61269,31648
61210,31660
61089,31660
61030,31648
60971,31637
60860,31591
60760,31524
60675,31439
60608,31339
60562,31228
60539,31110
60539,30989
60562,30871
60608,30760
60675,30660
60760,30575
60860,30508
60971,30462
61030,30451
61089,30439
61210,30439
61269,30451
Z" /> 
<path style="fill:#000000; fill-opacity:1.0; 
stroke:#000000; stroke-width:0; stroke-opacity:1; 
stroke-linecap:round; stroke-linejoin:round;fill-rule:evenodd;"
d="M 63760,31660
62539,31660
62539,30439
63760,30439
63760,31660
Z" /> 
<path style="fill:#000000; fill-opacity:1.0; 
stroke:#000000; stroke-width:0; stroke-opacity:1; 
stroke-linecap:round; stroke-linejoin:round;fill-rule:evenodd;"
d="M 54319,29751
54378,29762
54489,29808
54589,29875
54674,29960
54741,30060
54787,30171
54810,30289
54810,30410
54787,30528
54741,30639
54674,30739
54589,30824
54489,30891
54378,30937
54319,30948
54260,30960
54139,30960
54080,30948
54021,30937
53910,30891
53810,30824
53725,30739
53658,30639
53612,30528
53589,30410
53589,30289
53612,30171
53658,30060
53725,29960
53810,29875
53910,29808
54021,29762
54080,29751
54139,29739
54260,29739
54319,29751
Z" /> 
<path style="fill:#000000; fill-opacity:1.0; 
stroke:#000000; stroke-width:0; stroke-opacity:1; 
stroke-linecap:round; stroke-linejoin:round;fill-rule:evenodd;"
d="M 66235,30435
65564,30435
65564,29764
66235,29764
66235,30435
Z" /> 
<path style="fill:#000000; fill-opacity:1.0; 
stroke:#000000; stroke-width:0; stroke-opacity:1; 
stroke-linecap:round; stroke-linejoin:round;fill-rule:evenodd;"
d="M 57897,29759
57958,29784
58013,29821
58060,29867
58096,29922
58122,29983
58135,30048
58135,30114
58122,30179
58096,30240
58060,30295
58013,30341
57958,30378
57897,30403
57832,30416
57767,30416
57702,30403
57641,30378
57586,30341
57539,30295
57503,30240
57477,30179
57464,30114
57464,30048
57477,29983
57503,29922
57539,29867
57586,29821
57641,29784
57702,29759
57767,29746
57832,29746
57897,29759
Z" /> 
<path style="fill:#000000; fill-opacity:1.0; 
stroke:#000000; stroke-width:0; stroke-opacity:1; 
stroke-linecap:round; stroke-linejoin:round;fill-rule:evenodd;"
d="M 70110,30060
68889,30060
68889,28839
70110,28839
70110,30060
Z" /> 
<path style="fill:#000000; fill-opacity:1.0; 
stroke:#000000; stroke-width:0; stroke-opacity:1; 
stroke-linecap:round; stroke-linejoin:round;fill-rule:evenodd;"
d="M 54810,28960
53589,28960
53589,27739
54810,27739
54810,28960
Z" /> 
<path style="fill:#000000; fill-opacity:1.0; 
stroke:#000000; stroke-width:0; stroke-opacity:1; 
stroke-linecap:round; stroke-linejoin:round;fill-rule:evenodd;"
d="M 63997,28027
64058,28053
64113,28089
64160,28136
64196,28191
64222,28252
64235,28317
64235,28382
64222,28447
64196,28508
64160,28563
64113,28610
64058,28646
63997,28672
63932,28685
63867,28685
63802,28672
63741,28646
63686,28610
63639,28563
63603,28508
63577,28447
63564,28382
63564,28317
63577,28252
63603,28191
63639,28136
63686,28089
63741,28053
63802,28027
63867,28014
63932,28014
63997,28027
Z" /> 
<path style="fill:#000000; fill-opacity:1.0; 
stroke:#000000; stroke-width:0; stroke-opacity:1; 
stroke-linecap:round; stroke-linejoin:round;fill-rule:evenodd;"
d="M 58965,28019
59028,28038
59055,28053
59087,28070
59138,28111
59179,28162
59179,28162
59211,28221
59230,28284
59236,28350
59230,28415
59211,28478
59195,28508
59179,28537
59138,28588
59087,28629
59087,28629
59028,28661
58965,28680
58916,28685
58883,28685
58834,28680
58771,28661
58712,28629
58712,28629
58661,28588
58620,28537
58604,28508
58588,28478
58569,28415
58563,28350
58569,28284
58588,28221
58620,28162
58620,28162
58661,28111
58712,28070
58744,28053
58771,28038
58834,28019
58883,28014
58916,28014
58965,28019
Z" /> 
<path style="fill:#000000; fill-opacity:1.0; 
stroke:#000000; stroke-width:0; stroke-opacity:1; 
stroke-linecap:round; stroke-linejoin:round;fill-rule:evenodd;"
d="M 67235,28635
66564,28635
66564,27964
67235,27964
67235,28635
Z" /> 
<path style="fill:#000000; fill-opacity:1.0; 
stroke:#000000; stroke-width:0; stroke-opacity:1; 
stroke-linecap:round; stroke-linejoin:round;fill-rule:evenodd;"
d="M 65029,27977
65090,28003
65145,28039
65191,28086
65228,28141
65253,28202
65266,28267
65266,28332
65253,28397
65228,28458
65191,28513
65145,28560
65090,28596
65029,28622
64964,28635
64898,28635
64833,28622
64772,28596
64717,28560
64671,28513
64634,28458
64609,28397
64596,28332
64596,28267
64609,28202
64634,28141
64671,28086
64717,28039
64772,28003
64833,27977
64898,27964
64964,27964
65029,27977
Z" /> 
<path style="fill:#000000; fill-opacity:1.0; 
stroke:#000000; stroke-width:0; stroke-opacity:1; 
stroke-linecap:round; stroke-linejoin:round;fill-rule:evenodd;"
d="M 60047,26396
60108,26421
60163,26458
60210,26504
60246,26559
60272,26620
60285,26685
60285,26751
60272,26816
60246,26877
60210,26932
60163,26978
60108,27015
60047,27040
59982,27053
59917,27053
59852,27040
59791,27015
59736,26978
59689,26932
59653,26877
59627,26816
59614,26751
59614,26685
59627,26620
59653,26559
59689,26504
59736,26458
59791,26421
59852,26396
59917,26383
59982,26383
60047,26396
Z" /> 
<path style="fill:#000000; fill-opacity:1.0; 
stroke:#000000; stroke-width:0; stroke-opacity:1; 
stroke-linecap:round; stroke-linejoin:round;fill-rule:evenodd;"
d="M 65473,25919
65536,25938
65584,25964
65594,25970
65645,26011
65687,26062
65687,26062
65718,26121
65737,26184
65744,26250
65737,26315
65718,26378
65716,26383
65687,26437
65645,26488
65594,26529
65594,26529
65536,26561
65473,26580
65423,26585
65076,26585
65026,26580
64963,26561
64905,26529
64905,26529
64854,26488
64812,26437
64783,26383
64781,26378
64762,26315
64755,26250
64762,26184
64781,26121
64812,26062
64812,26062
64854,26011
64905,25970
64915,25964
64963,25938
65026,25919
65076,25914
65423,25914
65473,25919
Z" /> 
<path style="fill:#000000; fill-opacity:1.0; 
stroke:#000000; stroke-width:0; stroke-opacity:1; 
stroke-linecap:round; stroke-linejoin:round;fill-rule:evenodd;"
d="M 62473,25919
62536,25938
62584,25964
62594,25970
62645,26011
62687,26062
62687,26062
62718,26121
62737,26184
62744,26250
62737,26315
62718,26378
62716,26383
62687,26437
62645,26488
62594,26529
62594,26529
62536,26561
62473,26580
62423,26585
62076,26585
62026,26580
61963,26561
61905,26529
61905,26529
61854,26488
61812,26437
61783,26383
61781,26378
61762,26315
61755,26250
61762,26184
61781,26121
61812,26062
61812,26062
61854,26011
61905,25970
61915,25964
61963,25938
62026,25919
62076,25914
62423,25914
62473,25919
Z" /> 
<path style="fill:#000000; fill-opacity:1.0; 
stroke:#000000; stroke-width:0; stroke-opacity:1; 
stroke-linecap:round; stroke-linejoin:round;fill-rule:evenodd;"
d="M 54808,25809
54877,25830
54940,25863
54996,25909
55041,25964
55075,26028
55096,26097
55103,26168
55096,26239
55075,26308
55041,26372
54996,26427
54940,26473
54877,26506
54808,26527
54754,26533
54030,26533
53976,26527
53907,26506
53844,26473
53788,26427
53743,26372
53709,26308
53688,26239
53681,26168
53688,26097
53709,26028
53743,25964
53788,25909
53844,25863
53907,25830
53976,25809
54030,25803
54754,25803
54808,25809
Z" /> 
<path style="fill:#000000; fill-opacity:1.0; 
stroke:#000000; stroke-width:0; stroke-opacity:1; 
stroke-linecap:round; stroke-linejoin:round;fill-rule:evenodd;"
d="M 69652,24751
69675,24753
69760,24779
69760,24779
69839,24821
69908,24878
69964,24947
69999,25011
70006,25025
70032,25111
70041,25200
70032,25288
70024,25315
70006,25374
69964,25452
69908,25521
69839,25578
69760,25620
69760,25620
69675,25646
69652,25648
69608,25653
69091,25653
69047,25648
69024,25646
68939,25620
68939,25620
68860,25578
68791,25521
68735,25452
68693,25374
68675,25315
68667,25288
68658,25200
68667,25111
68693,25025
68700,25011
68735,24947
68791,24878
68860,24821
68939,24779
68939,24779
69024,24753
69047,24751
69091,24746
69608,24746
69652,24751
Z" /> 
<path style="fill:#000000; fill-opacity:1.0; 
stroke:#000000; stroke-width:0; stroke-opacity:1; 
stroke-linecap:round; stroke-linejoin:round;fill-rule:evenodd;"
d="M 62473,24919
62536,24938
62588,24966
62594,24970
62645,25011
62687,25062
62687,25062
62718,25121
62737,25184
62744,25250
62737,25315
62718,25378
62690,25431
62687,25437
62645,25488
62594,25529
62594,25529
62536,25561
62473,25580
62423,25585
62076,25585
62026,25580
61963,25561
61905,25529
61905,25529
61854,25488
61812,25437
61809,25431
61781,25378
61762,25315
61755,25250
61762,25184
61781,25121
61812,25062
61812,25062
61854,25011
61905,24970
61911,24966
61963,24938
62026,24919
62076,24914
62423,24914
62473,24919
Z" /> 
<path style="fill:#000000; fill-opacity:1.0; 
stroke:#000000; stroke-width:0; stroke-opacity:1; 
stroke-linecap:round; stroke-linejoin:round;fill-rule:evenodd;"
d="M 65473,24919
65536,24938
65588,24966
65594,24970
65645,25011
65687,25062
65687,25062
65718,25121
65737,25184
65744,25250
65737,25315
65718,25378
65690,25431
65687,25437
65645,25488
65594,25529
65594,25529
65536,25561
65473,25580
65423,25585
65076,25585
65026,25580
64963,25561
64905,25529
64905,25529
64854,25488
64812,25437
64809,25431
64781,25378
64762,25315
64755,25250
64762,25184
64781,25121
64812,25062
64812,25062
64854,25011
64905,24970
64911,24966
64963,24938
65026,24919
65076,24914
65423,24914
65473,24919
Z" /> 
<path style="fill:#000000; fill-opacity:1.0; 
stroke:#000000; stroke-width:0; stroke-opacity:1; 
stroke-linecap:round; stroke-linejoin:round;fill-rule:evenodd;"
d="M 54808,24824
54877,24845
54940,24879
54996,24925
55041,24980
55075,25044
55096,25112
55103,25184
55096,25255
55075,25324
55041,25387
54996,25443
54940,25488
54877,25522
54808,25543
54754,25548
54030,25548
53976,25543
53907,25522
53844,25488
53788,25443
53743,25387
53709,25324
53688,25255
53681,25184
53688,25112
53709,25044
53743,24980
53788,24925
53844,24879
53907,24845
53976,24824
54030,24819
54754,24819
54808,24824
Z" /> 
<path style="fill:#000000; fill-opacity:1.0; 
stroke:#000000; stroke-width:0; stroke-opacity:1; 
stroke-linecap:round; stroke-linejoin:round;fill-rule:evenodd;"
d="M 60285,25085
59614,25085
59614,24414
60285,24414
60285,25085
Z" /> 
<path style="fill:#000000; fill-opacity:1.0; 
stroke:#000000; stroke-width:0; stroke-opacity:1; 
stroke-linecap:round; stroke-linejoin:round;fill-rule:evenodd;"
d="M 52933,24909
51909,24909
51909,23490
52933,23490
52933,24909
Z" /> 
<path style="fill:#000000; fill-opacity:1.0; 
stroke:#000000; stroke-width:0; stroke-opacity:1; 
stroke-linecap:round; stroke-linejoin:round;fill-rule:evenodd;"
d="M 65473,23919
65536,23938
65588,23966
65594,23970
65645,24011
65687,24062
65687,24062
65718,24121
65737,24184
65744,24250
65737,24315
65718,24378
65699,24414
65687,24437
65645,24488
65594,24529
65594,24529
65536,24561
65473,24580
65423,24585
65076,24585
65026,24580
64963,24561
64905,24529
64905,24529
64854,24488
64812,24437
64800,24414
64781,24378
64762,24315
64755,24250
64762,24184
64781,24121
64812,24062
64812,24062
64854,24011
64905,23970
64911,23966
64963,23938
65026,23919
65076,23914
65423,23914
65473,23919
Z" /> 
<path style="fill:#000000; fill-opacity:1.0; 
stroke:#000000; stroke-width:0; stroke-opacity:1; 
stroke-linecap:round; stroke-linejoin:round;fill-rule:evenodd;"
d="M 62473,23919
62536,23938
62588,23966
62594,23970
62645,24011
62687,24062
62687,24062
62718,24121
62737,24184
62744,24250
62737,24315
62718,24378
62699,24414
62687,24437
62645,24488
62594,24529
62594,24529
62536,24561
62473,24580
62423,24585
62076,24585
62026,24580
61963,24561
61905,24529
61905,24529
61854,24488
61812,24437
61800,24414
61781,24378
61762,24315
61755,24250
61762,24184
61781,24121
61812,24062
61812,24062
61854,24011
61905,23970
61911,23966
61963,23938
62026,23919
62076,23914
62423,23914
62473,23919
Z" /> 
<path style="fill:#000000; fill-opacity:1.0; 
stroke:#000000; stroke-width:0; stroke-opacity:1; 
stroke-linecap:round; stroke-linejoin:round;fill-rule:evenodd;"
d="M 60758,23068
60789,23071
60850,23090
60850,23090
60905,23119
60954,23159
60994,23208
61024,23264
61024,23264
61042,23324
61048,23387
61042,23450
61031,23488
61024,23510
60994,23566
60954,23614
60905,23654
60850,23684
60850,23684
60789,23702
60758,23705
60742,23707
60425,23707
60409,23705
60378,23702
60318,23684
60318,23684
60262,23654
60213,23614
60173,23566
60144,23510
60137,23488
60125,23450
60119,23387
60125,23324
60144,23264
60144,23264
60173,23208
60213,23159
60262,23119
60318,23090
60318,23090
60378,23071
60409,23068
60425,23067
60742,23067
60758,23068
Z" /> 
<path style="fill:#000000; fill-opacity:1.0; 
stroke:#000000; stroke-width:0; stroke-opacity:1; 
stroke-linecap:round; stroke-linejoin:round;fill-rule:evenodd;"
d="M 58774,23068
58805,23071
58865,23090
58865,23090
58921,23119
58970,23159
59010,23208
59040,23264
59040,23264
59058,23324
59064,23387
59058,23450
59046,23488
59040,23510
59010,23566
58970,23614
58921,23654
58865,23684
58865,23684
58805,23702
58774,23705
58758,23707
58441,23707
58425,23705
58394,23702
58334,23684
58334,23684
58278,23654
58229,23614
58189,23566
58159,23510
58153,23488
58141,23450
58135,23387
58141,23324
58159,23264
58159,23264
58189,23208
58229,23159
58278,23119
58334,23090
58334,23090
58394,23071
58425,23068
58441,23067
58758,23067
58774,23068
Z" /> 
<path style="fill:#000000; fill-opacity:1.0; 
stroke:#000000; stroke-width:0; stroke-opacity:1; 
stroke-linecap:round; stroke-linejoin:round;fill-rule:evenodd;"
d="M 69652,22751
69675,22753
69760,22779
69760,22779
69839,22821
69908,22878
69964,22947
69999,23011
70006,23025
70032,23111
70041,23200
70032,23288
70021,23324
70006,23374
69964,23452
69908,23521
69839,23578
69771,23614
69760,23620
69675,23646
69652,23648
69608,23653
69091,23653
69047,23648
69024,23646
68939,23620
68928,23614
68860,23578
68791,23521
68735,23452
68693,23374
68678,23324
68667,23288
68658,23200
68667,23111
68693,23025
68700,23011
68735,22947
68791,22878
68860,22821
68939,22779
68939,22779
69024,22753
69047,22751
69091,22746
69608,22746
69652,22751
Z" /> 
<path style="fill:#000000; fill-opacity:1.0; 
stroke:#000000; stroke-width:0; stroke-opacity:1; 
stroke-linecap:round; stroke-linejoin:round;fill-rule:evenodd;"
d="M 62742,23585
61757,23585
61757,22914
62742,22914
62742,23585
Z" /> 
<path style="fill:#000000; fill-opacity:1.0; 
stroke:#000000; stroke-width:0; stroke-opacity:1; 
stroke-linecap:round; stroke-linejoin:round;fill-rule:evenodd;"
d="M 65473,22919
65536,22938
65569,22956
65594,22970
65645,23011
65687,23062
65687,23062
65718,23121
65737,23184
65744,23250
65737,23315
65718,23378
65713,23387
65687,23437
65645,23488
65594,23529
65594,23529
65536,23561
65473,23580
65423,23585
65076,23585
65026,23580
64963,23561
64905,23529
64905,23529
64854,23488
64812,23437
64786,23387
64781,23378
64762,23315
64755,23250
64762,23184
64781,23121
64812,23062
64812,23062
64854,23011
64905,22970
64930,22956
64963,22938
65026,22919
65076,22914
65423,22914
65473,22919
Z" /> 
<path style="fill:#000000; fill-opacity:1.0; 
stroke:#000000; stroke-width:0; stroke-opacity:1; 
stroke-linecap:round; stroke-linejoin:round;fill-rule:evenodd;"
d="M 54808,22856
54877,22877
54940,22911
54996,22956
55041,23012
55075,23075
55096,23144
55103,23215
55096,23287
55075,23355
55041,23419
54996,23474
54940,23520
54877,23554
54808,23575
54754,23580
54030,23580
53976,23575
53907,23554
53844,23520
53788,23474
53743,23419
53709,23355
53688,23287
53681,23215
53688,23144
53709,23075
53743,23012
53788,22956
53844,22911
53907,22877
53976,22856
54030,22851
54754,22851
54808,22856
Z" /> 
<path style="fill:#000000; fill-opacity:1.0; 
stroke:#000000; stroke-width:0; stroke-opacity:1; 
stroke-linecap:round; stroke-linejoin:round;fill-rule:evenodd;"
d="M 60758,22281
60789,22284
60850,22302
60850,22302
60905,22332
60954,22372
60994,22421
61024,22476
61024,22476
61042,22537
61048,22600
61042,22662
61024,22723
61024,22723
60994,22778
60954,22827
60905,22867
60850,22897
60850,22897
60789,22915
60758,22918
60742,22920
60425,22920
60409,22918
60378,22915
60318,22897
60318,22897
60262,22867
60213,22827
60173,22778
60144,22723
60144,22723
60125,22662
60119,22600
60125,22537
60144,22476
60144,22476
60173,22421
60213,22372
60262,22332
60318,22302
60318,22302
60378,22284
60409,22281
60425,22279
60742,22279
60758,22281
Z" /> 
<path style="fill:#000000; fill-opacity:1.0; 
stroke:#000000; stroke-width:0; stroke-opacity:1; 
stroke-linecap:round; stroke-linejoin:round;fill-rule:evenodd;"
d="M 58774,22281
58805,22284
58865,22302
58865,22302
58921,22332
58970,22372
59010,22421
59040,22476
59040,22476
59058,22537
59064,22600
59058,22662
59040,22723
59040,22723
59010,22778
58970,22827
58921,22867
58865,22897
58865,22897
58805,22915
58774,22918
58758,22920
58441,22920
58425,22918
58394,22915
58334,22897
58334,22897
58278,22867
58229,22827
58189,22778
58159,22723
58159,22723
58141,22662
58135,22600
58141,22537
58159,22476
58159,22476
58189,22421
58229,22372
58278,22332
58334,22302
58334,22302
58394,22284
58425,22281
58441,22279
58758,22279
58774,22281
Z" /> 
<path style="fill:#000000; fill-opacity:1.0; 
stroke:#000000; stroke-width:0; stroke-opacity:1; 
stroke-linecap:round; stroke-linejoin:round;fill-rule:evenodd;"
d="M 54808,21872
54877,21893
54940,21926
54996,21972
55041,22027
55075,22091
55096,22160
55103,22231
55096,22302
55075,22371
55041,22435
54996,22490
54940,22536
54877,22569
54808,22590
54754,22596
54030,22596
53976,22590
53907,22569
53844,22536
53788,22490
53743,22435
53709,22371
53688,22302
53681,22231
53688,22160
53709,22091
53743,22027
53788,21972
53844,21926
53907,21893
53976,21872
54030,21866
54754,21866
54808,21872
Z" /> 
<path style="fill:#000000; fill-opacity:1.0; 
stroke:#000000; stroke-width:0; stroke-opacity:1; 
stroke-linecap:round; stroke-linejoin:round;fill-rule:evenodd;"
d="M 60758,21494
60789,21497
60850,21515
60850,21515
60905,21545
60954,21585
60994,21633
61024,21689
61024,21689
61042,21749
61048,21812
61042,21875
61026,21926
61024,21935
60994,21991
60954,22040
60905,22080
60850,22109
60850,22109
60789,22128
60758,22131
60742,22132
60425,22132
60409,22131
60378,22128
60318,22109
60318,22109
60262,22080
60213,22040
60173,21991
60144,21935
60141,21926
60125,21875
60119,21812
60125,21749
60144,21689
60144,21689
60173,21633
60213,21585
60262,21545
60318,21515
60318,21515
60378,21497
60409,21494
60425,21492
60742,21492
60758,21494
Z" /> 
<path style="fill:#000000; fill-opacity:1.0; 
stroke:#000000; stroke-width:0; stroke-opacity:1; 
stroke-linecap:round; stroke-linejoin:round;fill-rule:evenodd;"
d="M 58774,21494
58805,21497
58865,21515
58865,21515
58921,21545
58970,21585
59010,21633
59040,21689
59040,21689
59058,21749
59064,21812
59058,21875
59042,21926
59040,21935
59010,21991
58970,22040
58921,22080
58865,22109
58865,22109
58805,22128
58774,22131
58758,22132
58441,22132
58425,22131
58394,22128
58334,22109
58334,22109
58278,22080
58229,22040
58189,21991
58159,21935
58157,21926
58141,21875
58135,21812
58141,21749
58159,21689
58159,21689
58189,21633
58229,21585
58278,21545
58334,21515
58334,21515
58394,21497
58425,21494
58441,21492
58758,21492
58774,21494
Z" /> 
<path style="fill:#000000; fill-opacity:1.0; 
stroke:#000000; stroke-width:0; stroke-opacity:1; 
stroke-linecap:round; stroke-linejoin:round;fill-rule:evenodd;"
d="M 68635,22085
67964,22085
67964,21414
68635,21414
68635,22085
Z" /> 
<path style="fill:#000000; fill-opacity:1.0; 
stroke:#000000; stroke-width:0; stroke-opacity:1; 
stroke-linecap:round; stroke-linejoin:round;fill-rule:evenodd;"
d="M 66109,20690
66190,20706
66216,20717
66277,20742
66356,20795
66423,20862
66475,20940
66490,20975
66504,21010
66512,21028
66530,21121
66530,21215
66512,21308
66475,21396
66423,21474
66356,21541
66277,21594
66226,21615
66190,21630
66174,21633
66097,21649
66002,21649
65925,21633
65909,21630
65873,21615
65822,21594
65743,21541
65676,21474
65624,21396
65587,21308
65569,21215
65569,21121
65587,21028
65595,21010
65609,20975
65624,20940
65676,20862
65743,20795
65822,20742
65883,20717
65909,20706
65990,20690
66002,20687
66097,20687
66109,20690
Z" /> 
<path style="fill:#000000; fill-opacity:1.0; 
stroke:#000000; stroke-width:0; stroke-opacity:1; 
stroke-linecap:round; stroke-linejoin:round;fill-rule:evenodd;"
d="M 72266,20427
72327,20453
72382,20489
72428,20536
72465,20591
72490,20652
72503,20717
72503,20782
72490,20847
72465,20908
72428,20963
72382,21010
72327,21046
72266,21072
72201,21085
72135,21085
72070,21072
72009,21046
71954,21010
71908,20963
71871,20908
71846,20847
71833,20782
71833,20717
71846,20652
71871,20591
71908,20536
71954,20489
72009,20453
72070,20427
72135,20414
72201,20414
72266,20427
Z" /> 
<path style="fill:#000000; fill-opacity:1.0; 
stroke:#000000; stroke-width:0; stroke-opacity:1; 
stroke-linecap:round; stroke-linejoin:round;fill-rule:evenodd;"
d="M 70535,21085
69864,21085
69864,20414
70535,20414
70535,21085
Z" /> 
<path style="fill:#000000; fill-opacity:1.0; 
stroke:#000000; stroke-width:0; stroke-opacity:1; 
stroke-linecap:round; stroke-linejoin:round;fill-rule:evenodd;"
d="M 52306,20078
52353,20087
52389,20102
52440,20124
52519,20176
52586,20243
52638,20322
52639,20324
52675,20409
52676,20414
52693,20502
52693,20597
52675,20690
52638,20777
52586,20856
52519,20923
52440,20975
52389,20997
52353,21012
52306,21021
52260,21030
52165,21030
52119,21021
52072,21012
52036,20997
51985,20975
51906,20923
51839,20856
51786,20777
51750,20690
51732,20597
51732,20502
51749,20414
51750,20409
51786,20324
51786,20322
51839,20243
51906,20176
51985,20124
52036,20102
52072,20087
52119,20078
52165,20069
52260,20069
52306,20078
Z" /> 
<path style="fill:#000000; fill-opacity:1.0; 
stroke:#000000; stroke-width:0; stroke-opacity:1; 
stroke-linecap:round; stroke-linejoin:round;fill-rule:evenodd;"
d="M 56243,20078
56290,20087
56326,20102
56377,20124
56456,20176
56523,20243
56575,20322
56576,20324
56612,20409
56613,20414
56630,20502
56630,20597
56612,20690
56575,20777
56523,20856
56456,20923
56377,20975
56326,20997
56290,21012
56243,21021
56197,21030
56102,21030
56056,21021
56009,21012
55973,20997
55922,20975
55843,20923
55776,20856
55724,20777
55687,20690
55669,20597
55669,20502
55686,20414
55687,20409
55723,20324
55724,20322
55776,20243
55843,20176
55922,20124
55973,20102
56009,20087
56056,20078
56102,20069
56197,20069
56243,20078
Z" /> 
<path style="fill:#000000; fill-opacity:1.0; 
stroke:#000000; stroke-width:0; stroke-opacity:1; 
stroke-linecap:round; stroke-linejoin:round;fill-rule:evenodd;"
d="M 54274,20078
54321,20087
54357,20102
54409,20124
54487,20176
54554,20243
54607,20322
54608,20324
54643,20409
54644,20414
54662,20502
54662,20597
54643,20690
54607,20777
54554,20856
54487,20923
54409,20975
54357,20997
54321,21012
54275,21021
54228,21030
54134,21030
54087,21021
54041,21012
54005,20997
53953,20975
53875,20923
53808,20856
53755,20777
53719,20690
53700,20597
53700,20502
53718,20414
53719,20409
53754,20324
53755,20322
53808,20243
53875,20176
53953,20124
54005,20102
54041,20087
54088,20078
54134,20069
54228,20069
54274,20078
Z" /> 
<path style="fill:#000000; fill-opacity:1.0; 
stroke:#000000; stroke-width:0; stroke-opacity:1; 
stroke-linecap:round; stroke-linejoin:round;fill-rule:evenodd;"
d="M 62194,19710
62253,19722
62289,19737
62340,19758
62419,19810
62486,19877
62538,19956
62560,20007
62575,20044
62593,20136
62593,20231
62575,20322
62575,20324
62538,20411
62486,20490
62419,20557
62340,20610
62289,20631
62253,20646
62160,20664
62065,20664
61972,20646
61936,20631
61885,20610
61806,20557
61739,20490
61686,20411
61650,20324
61650,20322
61632,20231
61632,20136
61650,20044
61665,20007
61686,19956
61739,19877
61806,19810
61885,19758
61936,19737
61972,19722
62031,19710
62065,19703
62160,19703
62194,19710
Z" /> 
<path style="fill:#000000; fill-opacity:1.0; 
stroke:#000000; stroke-width:0; stroke-opacity:1; 
stroke-linecap:round; stroke-linejoin:round;fill-rule:evenodd;"
d="M 68397,19459
68458,19484
68513,19521
68560,19567
68596,19622
68622,19683
68635,19748
68635,19814
68622,19879
68596,19940
68560,19995
68513,20041
68458,20078
68397,20103
68332,20116
68267,20116
68202,20103
68141,20078
68086,20041
68039,19995
68003,19940
67977,19879
67964,19814
67964,19748
67977,19683
68003,19622
68039,19567
68086,19521
68141,19484
68202,19459
68267,19446
68332,19446
68397,19459
Z" /> 
<path style="fill:#000000; fill-opacity:1.0; 
stroke:#000000; stroke-width:0; stroke-opacity:1; 
stroke-linecap:round; stroke-linejoin:round;fill-rule:evenodd;"
d="M 61185,19785
60514,19785
60514,19114
61185,19114
61185,19785
Z" /> 
<path style="fill:#000000; fill-opacity:1.0; 
stroke:#000000; stroke-width:0; stroke-opacity:1; 
stroke-linecap:round; stroke-linejoin:round;fill-rule:evenodd;"
d="M 58979,19127
59040,19153
59095,19189
59141,19236
59178,19291
59203,19352
59216,19417
59216,19482
59203,19547
59178,19608
59141,19663
59095,19710
59040,19746
58979,19772
58914,19785
58848,19785
58783,19772
58722,19746
58667,19710
58621,19663
58584,19608
58559,19547
58546,19482
58546,19417
58559,19352
58584,19291
58621,19236
58667,19189
58722,19153
58783,19127
58848,19114
58914,19114
58979,19127
Z" /> 
<path style="fill:#000000; fill-opacity:1.0; 
stroke:#000000; stroke-width:0; stroke-opacity:1; 
stroke-linecap:round; stroke-linejoin:round;fill-rule:evenodd;"
d="M 66190,18737
66226,18752
66277,18774
66356,18826
66423,18893
66475,18972
66512,19059
66530,19152
66530,19247
66512,19340
66475,19427
66423,19506
66356,19573
66277,19625
66226,19647
66190,19662
66097,19680
66002,19680
65956,19671
65909,19662
65873,19647
65822,19625
65743,19573
65676,19506
65624,19427
65587,19340
65569,19247
65569,19152
65587,19059
65624,18972
65676,18893
65743,18826
65822,18774
65873,18752
65909,18737
65956,18728
66002,18719
66097,18719
66190,18737
Z" /> 
</g> 
</svg>
