<?xml version="1.0" standalone="no"?>
 <!DOCTYPE svg PUBLIC "-//W3C//DTD SVG 1.1//EN" 
 "http://www.w3.org/Graphics/SVG/1.1/DTD/svg11.dtd"> 
<svg xmlns="http://www.w3.org/2000/svg" version="1.1" 
    width="29.7002cm" height="21.0007cm" viewBox="0 0 116930 82680 ">
<title>SVG Picture created as PlacaEmissora-B_Mask.svg date 2019/11/26 18:07:50 </title>
  <desc>Picture generated by PCBNEW </desc>
<g style="fill:#000000; fill-opacity:1;stroke:#000000; stroke-opacity:1;
stroke-linecap:round; stroke-linejoin:round; "
 transform="translate(0 0) scale(1 1)">
</g>
<g style="fill:#000000; fill-opacity:0.0; 
stroke:#000000; stroke-width:-0.000393701; stroke-opacity:1; 
stroke-linecap:round; stroke-linejoin:round;">
</g>
<g style="fill:#000000; fill-opacity:1.0; 
stroke:#000000; stroke-width:0; stroke-opacity:1; 
stroke-linecap:round; stroke-linejoin:round;">
<path style="fill:#000000; fill-opacity:1.0; 
stroke:#000000; stroke-width:0; stroke-opacity:1; 
stroke-linecap:round; stroke-linejoin:round;fill-rule:evenodd;"
d="M 34419,25851
34478,25862
34589,25908
34689,25975
34774,26060
34841,26160
34887,26271
34887,26271
34910,26389
34910,26510
34907,26525
34887,26628
34841,26739
34774,26839
34689,26924
34589,26991
34478,27037
34419,27048
34360,27060
34239,27060
34180,27048
34121,27037
34010,26991
33910,26924
33825,26839
33758,26739
33712,26628
33692,26525
33689,26510
33689,26389
33712,26271
33712,26271
33758,26160
33825,26060
33910,25975
34010,25908
34121,25862
34180,25851
34239,25839
34360,25839
34419,25851
Z" /> 
<path style="fill:#000000; fill-opacity:1.0; 
stroke:#000000; stroke-width:0; stroke-opacity:1; 
stroke-linecap:round; stroke-linejoin:round;fill-rule:evenodd;"
d="M 32910,27060
31689,27060
31689,25839
32910,25839
32910,27060
Z" /> 
<path style="fill:#000000; fill-opacity:1.0; 
stroke:#000000; stroke-width:0; stroke-opacity:1; 
stroke-linecap:round; stroke-linejoin:round;fill-rule:evenodd;"
d="M 36388,25517
36474,25543
36474,25543
36552,25585
36552,25585
36552,25585
36621,25641
36647,25672
36678,25710
36720,25789
36720,25789
36746,25874
36746,25874
36753,25941
36753,26458
36746,26525
36720,26610
36678,26689
36621,26758
36552,26814
36474,26856
36474,26856
36388,26882
36300,26891
36211,26882
36125,26856
36125,26856
36047,26814
35978,26758
35921,26689
35879,26610
35853,26525
35846,26458
35846,25941
35853,25874
35853,25874
35879,25789
35921,25710
35978,25641
36009,25616
36047,25585
36125,25543
36125,25543
36211,25517
36300,25508
36388,25517
Z" /> 
<path style="fill:#000000; fill-opacity:1.0; 
stroke:#000000; stroke-width:0; stroke-opacity:1; 
stroke-linecap:round; stroke-linejoin:round;fill-rule:evenodd;"
d="M 38388,25517
38474,25543
38474,25543
38552,25585
38552,25585
38552,25585
38621,25641
38647,25672
38678,25710
38720,25789
38720,25789
38746,25874
38746,25874
38753,25941
38753,26458
38746,26525
38720,26610
38678,26689
38621,26758
38552,26814
38474,26856
38474,26856
38388,26882
38300,26891
38211,26882
38125,26856
38125,26856
38047,26814
37978,26758
37921,26689
37879,26610
37853,26525
37846,26458
37846,25941
37853,25874
37853,25874
37879,25789
37921,25710
37978,25641
38009,25616
38047,25585
38125,25543
38125,25543
38211,25517
38300,25508
38388,25517
Z" /> 
<path style="fill:#000000; fill-opacity:1.0; 
stroke:#000000; stroke-width:0; stroke-opacity:1; 
stroke-linecap:round; stroke-linejoin:round;fill-rule:evenodd;"
d="M 32815,23577
32884,23598
32948,23632
33003,23677
33049,23733
33082,23796
33103,23865
33110,23937
33103,24008
33082,24077
33049,24140
33003,24196
32948,24241
32884,24275
32815,24296
32762,24301
32037,24301
31984,24296
31915,24275
31851,24241
31796,24196
31750,24140
31717,24077
31696,24008
31689,23937
31696,23865
31717,23796
31750,23733
31796,23677
31851,23632
31915,23598
31984,23577
32037,23572
32762,23572
32815,23577
Z" /> 
<path style="fill:#000000; fill-opacity:1.0; 
stroke:#000000; stroke-width:0; stroke-opacity:1; 
stroke-linecap:round; stroke-linejoin:round;fill-rule:evenodd;"
d="M 38192,23435
37207,23435
37207,22764
38192,22764
38192,23435
Z" /> 
<path style="fill:#000000; fill-opacity:1.0; 
stroke:#000000; stroke-width:0; stroke-opacity:1; 
stroke-linecap:round; stroke-linejoin:round;fill-rule:evenodd;"
d="M 34923,22769
34986,22788
35030,22812
35044,22820
35095,22861
35137,22912
35137,22912
35168,22971
35187,23034
35194,23100
35187,23165
35168,23228
35153,23257
35137,23287
35095,23338
35044,23379
35044,23379
34986,23411
34923,23430
34873,23435
34526,23435
34476,23430
34413,23411
34355,23379
34355,23379
34304,23338
34262,23287
34246,23257
34231,23228
34212,23165
34205,23100
34212,23034
34231,22971
34262,22912
34262,22912
34304,22861
34355,22820
34369,22812
34413,22788
34476,22769
34526,22764
34873,22764
34923,22769
Z" /> 
<path style="fill:#000000; fill-opacity:1.0; 
stroke:#000000; stroke-width:0; stroke-opacity:1; 
stroke-linecap:round; stroke-linejoin:round;fill-rule:evenodd;"
d="M 32815,22593
32884,22614
32948,22648
33003,22693
33049,22749
33082,22812
33103,22881
33110,22952
33103,23024
33082,23092
33049,23156
33003,23211
32948,23257
32884,23291
32815,23312
32762,23317
32037,23317
31984,23312
31915,23291
31851,23257
31796,23211
31750,23156
31717,23092
31696,23024
31689,22952
31696,22881
31717,22812
31750,22749
31796,22693
31851,22648
31915,22614
31984,22593
32037,22588
32762,22588
32815,22593
Z" /> 
<path style="fill:#000000; fill-opacity:1.0; 
stroke:#000000; stroke-width:0; stroke-opacity:1; 
stroke-linecap:round; stroke-linejoin:round;fill-rule:evenodd;"
d="M 41110,23310
39889,23310
39889,22089
41110,22089
41110,23310
Z" /> 
<path style="fill:#000000; fill-opacity:1.0; 
stroke:#000000; stroke-width:0; stroke-opacity:1; 
stroke-linecap:round; stroke-linejoin:round;fill-rule:evenodd;"
d="M 30941,22677
29916,22677
29916,21259
30941,21259
30941,22677
Z" /> 
<path style="fill:#000000; fill-opacity:1.0; 
stroke:#000000; stroke-width:0; stroke-opacity:1; 
stroke-linecap:round; stroke-linejoin:round;fill-rule:evenodd;"
d="M 34923,21769
34986,21788
35038,21816
35044,21820
35095,21861
35137,21912
35137,21912
35168,21971
35187,22034
35194,22100
35187,22165
35168,22228
35140,22281
35137,22287
35095,22338
35044,22379
35044,22379
34986,22411
34923,22430
34873,22435
34526,22435
34476,22430
34413,22411
34355,22379
34355,22379
34304,22338
34262,22287
34259,22281
34231,22228
34212,22165
34205,22100
34212,22034
34231,21971
34262,21912
34262,21912
34304,21861
34355,21820
34361,21816
34413,21788
34476,21769
34526,21764
34873,21764
34923,21769
Z" /> 
<path style="fill:#000000; fill-opacity:1.0; 
stroke:#000000; stroke-width:0; stroke-opacity:1; 
stroke-linecap:round; stroke-linejoin:round;fill-rule:evenodd;"
d="M 37923,21769
37986,21788
38038,21816
38044,21820
38095,21861
38137,21912
38137,21912
38168,21971
38187,22034
38194,22100
38187,22165
38168,22228
38140,22281
38137,22287
38095,22338
38044,22379
38044,22379
37986,22411
37923,22430
37873,22435
37526,22435
37476,22430
37413,22411
37355,22379
37355,22379
37304,22338
37262,22287
37259,22281
37231,22228
37212,22165
37205,22100
37212,22034
37231,21971
37262,21912
37262,21912
37304,21861
37355,21820
37361,21816
37413,21788
37476,21769
37526,21764
37873,21764
37923,21769
Z" /> 
<path style="fill:#000000; fill-opacity:1.0; 
stroke:#000000; stroke-width:0; stroke-opacity:1; 
stroke-linecap:round; stroke-linejoin:round;fill-rule:evenodd;"
d="M 34923,20769
34986,20788
35038,20816
35044,20820
35095,20861
35137,20912
35137,20912
35168,20971
35187,21034
35194,21100
35187,21165
35168,21228
35152,21259
35137,21287
35095,21338
35044,21379
35044,21379
34986,21411
34923,21430
34873,21435
34526,21435
34476,21430
34413,21411
34355,21379
34355,21379
34304,21338
34262,21287
34247,21259
34231,21228
34212,21165
34205,21100
34212,21034
34231,20971
34262,20912
34262,20912
34304,20861
34355,20820
34361,20816
34413,20788
34476,20769
34526,20764
34873,20764
34923,20769
Z" /> 
<path style="fill:#000000; fill-opacity:1.0; 
stroke:#000000; stroke-width:0; stroke-opacity:1; 
stroke-linecap:round; stroke-linejoin:round;fill-rule:evenodd;"
d="M 37923,20769
37986,20788
38038,20816
38044,20820
38095,20861
38137,20912
38137,20912
38168,20971
38187,21034
38194,21100
38187,21165
38168,21228
38152,21259
38137,21287
38095,21338
38044,21379
38044,21379
37986,21411
37923,21430
37873,21435
37526,21435
37476,21430
37413,21411
37355,21379
37355,21379
37304,21338
37262,21287
37247,21259
37231,21228
37212,21165
37205,21100
37212,21034
37231,20971
37262,20912
37262,20912
37304,20861
37355,20820
37361,20816
37413,20788
37476,20769
37526,20764
37873,20764
37923,20769
Z" /> 
<path style="fill:#000000; fill-opacity:1.0; 
stroke:#000000; stroke-width:0; stroke-opacity:1; 
stroke-linecap:round; stroke-linejoin:round;fill-rule:evenodd;"
d="M 32815,20624
32884,20645
32948,20679
33003,20725
33049,20780
33082,20844
33103,20912
33110,20984
33103,21055
33082,21124
33049,21187
33003,21243
32948,21288
32884,21322
32815,21343
32762,21348
32037,21348
31984,21343
31915,21322
31851,21288
31796,21243
31750,21187
31717,21124
31696,21055
31689,20984
31696,20912
31717,20844
31750,20780
31796,20725
31851,20679
31915,20645
31984,20624
32037,20619
32762,20619
32815,20624
Z" /> 
<path style="fill:#000000; fill-opacity:1.0; 
stroke:#000000; stroke-width:0; stroke-opacity:1; 
stroke-linecap:round; stroke-linejoin:round;fill-rule:evenodd;"
d="M 40613,20100
40678,20112
40789,20158
40889,20225
40974,20310
41041,20410
41087,20521
41087,20521
41110,20639
41110,20760
41098,20819
41087,20878
41041,20989
40974,21089
40889,21174
40789,21241
40678,21287
40619,21298
40560,21310
40439,21310
40380,21298
40321,21287
40210,21241
40110,21174
40025,21089
39958,20989
39912,20878
39901,20819
39889,20760
39889,20639
39912,20521
39912,20521
39958,20410
40025,20310
40110,20225
40210,20158
40321,20112
40386,20100
40439,20089
40560,20089
40613,20100
Z" /> 
<path style="fill:#000000; fill-opacity:1.0; 
stroke:#000000; stroke-width:0; stroke-opacity:1; 
stroke-linecap:round; stroke-linejoin:round;fill-rule:evenodd;"
d="M 37923,19769
37986,19788
38038,19816
38044,19820
38095,19861
38137,19912
38137,19912
38168,19971
38187,20034
38194,20100
38187,20165
38168,20228
38152,20259
38137,20287
38095,20338
38044,20379
38044,20379
37986,20411
37923,20430
37873,20435
37526,20435
37476,20430
37413,20411
37355,20379
37355,20379
37304,20338
37262,20287
37247,20259
37231,20228
37212,20165
37205,20100
37212,20034
37231,19971
37262,19912
37262,19912
37304,19861
37355,19820
37361,19816
37413,19788
37476,19769
37526,19764
37873,19764
37923,19769
Z" /> 
<path style="fill:#000000; fill-opacity:1.0; 
stroke:#000000; stroke-width:0; stroke-opacity:1; 
stroke-linecap:round; stroke-linejoin:round;fill-rule:evenodd;"
d="M 34923,19769
34986,19788
35038,19816
35044,19820
35095,19861
35137,19912
35137,19912
35168,19971
35187,20034
35194,20100
35187,20165
35168,20228
35152,20259
35137,20287
35095,20338
35044,20379
35044,20379
34986,20411
34923,20430
34873,20435
34526,20435
34476,20430
34413,20411
34355,20379
34355,20379
34304,20338
34262,20287
34247,20259
34231,20228
34212,20165
34205,20100
34212,20034
34231,19971
34262,19912
34262,19912
34304,19861
34355,19820
34361,19816
34413,19788
34476,19769
34526,19764
34873,19764
34923,19769
Z" /> 
<path style="fill:#000000; fill-opacity:1.0; 
stroke:#000000; stroke-width:0; stroke-opacity:1; 
stroke-linecap:round; stroke-linejoin:round;fill-rule:evenodd;"
d="M 32815,19640
32884,19661
32948,19695
33003,19740
33049,19796
33082,19859
33103,19928
33110,20000
33103,20071
33082,20140
33049,20203
33003,20259
32948,20304
32884,20338
32815,20359
32762,20364
32037,20364
31984,20359
31915,20338
31851,20304
31796,20259
31750,20203
31717,20140
31696,20071
31689,20000
31696,19928
31717,19859
31750,19796
31796,19740
31851,19695
31915,19661
31984,19640
32037,19635
32762,19635
32815,19640
Z" /> 
<path style="fill:#000000; fill-opacity:1.0; 
stroke:#000000; stroke-width:0; stroke-opacity:1; 
stroke-linecap:round; stroke-linejoin:round;fill-rule:evenodd;"
d="M 32497,18377
32558,18403
32613,18439
32660,18486
32696,18541
32722,18602
32735,18667
32735,18732
32722,18797
32696,18858
32660,18913
32613,18960
32558,18996
32497,19022
32432,19035
32367,19035
32302,19022
32241,18996
32186,18960
32139,18913
32103,18858
32077,18797
32064,18732
32064,18667
32077,18602
32103,18541
32139,18486
32186,18439
32241,18403
32302,18377
32367,18364
32432,18364
32497,18377
Z" /> 
<path style="fill:#000000; fill-opacity:1.0; 
stroke:#000000; stroke-width:0; stroke-opacity:1; 
stroke-linecap:round; stroke-linejoin:round;fill-rule:evenodd;"
d="M 36465,18369
36528,18388
36545,18397
36587,18420
36638,18461
36679,18512
36679,18512
36711,18571
36730,18634
36736,18700
36730,18765
36711,18828
36695,18858
36679,18887
36638,18938
36587,18979
36587,18979
36528,19011
36465,19030
36416,19035
36383,19035
36334,19030
36271,19011
36212,18979
36212,18979
36161,18938
36120,18887
36104,18858
36088,18828
36069,18765
36063,18700
36069,18634
36088,18571
36120,18512
36120,18512
36161,18461
36212,18420
36254,18397
36271,18388
36334,18369
36383,18364
36416,18364
36465,18369
Z" /> 
<path style="fill:#000000; fill-opacity:1.0; 
stroke:#000000; stroke-width:0; stroke-opacity:1; 
stroke-linecap:round; stroke-linejoin:round;fill-rule:evenodd;"
d="M 39935,18635
39264,18635
39264,17964
39935,17964
39935,18635
Z" /> 
<path style="fill:#000000; fill-opacity:1.0; 
stroke:#000000; stroke-width:0; stroke-opacity:1; 
stroke-linecap:round; stroke-linejoin:round;fill-rule:evenodd;"
d="M 38713,17977
38774,18003
38829,18039
38875,18086
38912,18141
38937,18202
38950,18267
38950,18332
38937,18397
38912,18458
38875,18513
38829,18560
38774,18596
38713,18622
38648,18635
38582,18635
38518,18622
38457,18596
38402,18560
38355,18513
38318,18458
38293,18397
38280,18332
38280,18267
38293,18202
38318,18141
38355,18086
38402,18039
38457,18003
38518,17977
38582,17964
38648,17964
38713,17977
Z" /> 
</g> 
</svg>
