<?xml version="1.0" encoding="UTF-8" standalone="no"?>
<svg
   xmlns:dc="http://purl.org/dc/elements/1.1/"
   xmlns:cc="http://creativecommons.org/ns#"
   xmlns:rdf="http://www.w3.org/1999/02/22-rdf-syntax-ns#"
   xmlns:svg="http://www.w3.org/2000/svg"
   xmlns="http://www.w3.org/2000/svg"
   xmlns:sodipodi="http://sodipodi.sourceforge.net/DTD/sodipodi-0.dtd"
   xmlns:inkscape="http://www.inkscape.org/namespaces/inkscape"
   version="1.1"
   width="29.7002cm"
   height="21.0007cm"
   viewBox="0 0 116930 82680 "
   id="svg412"
   sodipodi:docname="PlacaEmissora-B_Cu.svg"
   inkscape:version="0.92.4 (5da689c313, 2019-01-14)">
  <metadata
     id="metadata418">
    <rdf:RDF>
      <cc:Work
         rdf:about="">
        <dc:format>image/svg+xml</dc:format>
        <dc:type
           rdf:resource="http://purl.org/dc/dcmitype/StillImage" />
      </cc:Work>
    </rdf:RDF>
  </metadata>
  <defs
     id="defs416" />
  <sodipodi:namedview
     pagecolor="#ffffff"
     bordercolor="#666666"
     borderopacity="1"
     objecttolerance="10"
     gridtolerance="10"
     guidetolerance="10"
     inkscape:pageopacity="0"
     inkscape:pageshadow="2"
     inkscape:window-width="1366"
     inkscape:window-height="705"
     id="namedview414"
     showgrid="false"
     inkscape:zoom="4.7573017"
     inkscape:cx="365.99597"
     inkscape:cy="568.65921"
     inkscape:window-x="-8"
     inkscape:window-y="-8"
     inkscape:window-maximized="1"
     inkscape:current-layer="g338" />
  <title
     id="title2">SVG Picture created as PlacaEmissora-B_Cu.svg date 2019/11/26 18:07:33 </title>
  <desc
     id="desc4">Picture generated by PCBNEW </desc>
  <g
     style="fill:#000000; fill-opacity:1;stroke:#000000; stroke-opacity:1; stroke-linecap:round; stroke-linejoin:round; "
     transform="translate(0 0) scale(1 1)"
     id="g6" />
  <g
     style="fill:#000000; fill-opacity:0.0;  stroke:#000000; stroke-width:-0.000393701; stroke-opacity:1;  stroke-linecap:round; stroke-linejoin:round;"
     id="g8" />
  <g
     style="fill:#000000;fill-opacity:1;stroke:#000000;stroke-width:39.37009811;stroke-linecap:round;stroke-linejoin:round;stroke-opacity:1"
     id="g12"
     transform="matrix(0.70722858,0,0,0.75092145,10674.868,6154.5002)">
    <rect
       x="25859.4"
       y="14533.3"
       width="18960.4"
       height="16835.199"
       rx="0"
       id="rect10" />
  </g>
  <g
     style="fill:#FFFFFF; fill-opacity:1.0;  stroke:#FFFFFF; stroke-width:39.3701; stroke-opacity:1;  stroke-linecap:round; stroke-linejoin:round;"
     id="g14" />
  <g
     style="fill:#FFFFFF; fill-opacity:0.0;  stroke:#FFFFFF; stroke-width:39.3701; stroke-opacity:1;  stroke-linecap:round; stroke-linejoin:round;"
     id="g16" />
  <g
     style="fill:#FFFFFF; fill-opacity:0.0;  stroke:#FFFFFF; stroke-width:118.11; stroke-opacity:1;  stroke-linecap:round; stroke-linejoin:round;"
     id="g272">
    <path
       d="M30978 18076 L30781 18667 L30584 18076 "
       id="path18" />
    <path
       d="M30078 18667 L30415 18667 "
       id="path20" />
    <path
       d="M30246 18667 L30246 18076 L30303 18160 L30359 18217 L30415 18245 "
       id="path22" />
    <path
       d="M41499 24256 L40900 24256 "
       id="path24" />
    <path
       d="M41200 24556 L41200 23956 "
       id="path26" />
    <path
       d="M34045 27904 L34101 27876 L34185 27876 L34270 27904 L34326 27960 L34354 28017 L34382 28129 L34382 28214 L34354 28326 L34326 28382 L34270 28439 L34185 28467 L34129 28467 L34045 28439 L34017 28410 L34017 28214 L34129 28214 "
       id="path28" />
    <path
       d="M32424 28042 L31975 28042 "
       id="path30" />
    <path
       d="M32200 28267 L32200 27817 "
       id="path32" />
    <path
       d="M41290 28367 L41290 27776 L41149 27776 L41065 27804 L41009 27860 L40981 27917 L40952 28029 L40952 28114 L40981 28226 L41009 28282 L41065 28339 L41149 28367 L41290 28367 "
       id="path34" />
    <path
       d="M40446 27973 L40446 28367 "
       id="path36" />
    <path
       d="M40699 27973 L40699 28282 L40671 28339 L40615 28367 L40531 28367 L40474 28339 L40446 28310 "
       id="path38" />
    <path
       d="M39912 28367 L39912 27776 "
       id="path40" />
    <path
       d="M39912 28339 L39968 28367 L40081 28367 L40137 28339 L40165 28310 L40193 28254 L40193 28085 L40165 28029 L40137 28001 L40081 27973 L39968 27973 L39912 28001 "
       id="path42" />
    <path
       d="M39378 27973 L39378 28367 "
       id="path44" />
    <path
       d="M39631 27973 L39631 28282 L39603 28339 L39546 28367 L39462 28367 L39406 28339 L39378 28310 "
       id="path46" />
    <path
       d="M39237 28423 L38787 28423 "
       id="path48" />
    <path
       d="M38647 27973 L38647 28564 "
       id="path50" />
    <path
       d="M38365 28282 L38337 28339 L38281 28367 "
       id="path52" />
    <path
       d="M38647 28282 L38618 28339 L38562 28367 L38450 28367 L38393 28339 L38365 28282 L38365 27973 "
       id="path54" />
    <g
       id="g56" />
    <g
       style="fill:#FFFFFF; fill-opacity:1.0;  stroke:#FFFFFF; stroke-width:0; stroke-opacity:1;  stroke-linecap:round; stroke-linejoin:round;"
       id="g60">
      <circle
         cx="38615.7"
         cy="18300"
         r="314.961"
         id="circle58" />
    </g>
    <g
       style="fill:#FFFFFF; fill-opacity:1.0;  stroke:#FFFFFF; stroke-width:39.3701; stroke-opacity:1;  stroke-linecap:round; stroke-linejoin:round;"
       id="g62" />
    <g
       style="fill:#FFFFFF; fill-opacity:1.0;  stroke:#FFFFFF; stroke-width:0; stroke-opacity:1;  stroke-linecap:round; stroke-linejoin:round;"
       id="g66">
      <path
         style="fill:#FFFFFF; fill-opacity:1.0;  stroke:#FFFFFF; stroke-width:0; stroke-opacity:1;  stroke-linecap:round; stroke-linejoin:round;fill-rule:evenodd;"
         d="M 39914,17985 39914,18614 39285,18614 39285,17985 39914,17985 Z"
         id="path64" />
    </g>
    <g
       id="g70">
      <path
         style="fill:#FFFFFF; fill-opacity:1.0;  stroke:#FFFFFF; stroke-width:0; stroke-opacity:1;  stroke-linecap:round; stroke-linejoin:round;fill-rule:evenodd;"
         d="M 30921,22657 29937,22657 29937,21279 30921,21279 30921,22657 Z"
         id="path68" />
    </g>
    <g
       style="fill:#FFFFFF; fill-opacity:1.0;  stroke:#FFFFFF; stroke-width:688.976; stroke-opacity:1;  stroke-linecap:round; stroke-linejoin:round;"
       id="g72" />
    <g
       style="fill:#FFFFFF; fill-opacity:0.0;  stroke:#FFFFFF; stroke-width:688.976; stroke-opacity:1;  stroke-linecap:round; stroke-linejoin:round;"
       id="g82">
      <path
         d="M32055 20000 L32744 20000 "
         id="path74" />
      <path
         d="M32055 23937 L32744 23937 "
         id="path76" />
      <path
         d="M32055 20984 L32744 20984 "
         id="path78" />
      <path
         d="M32055 22952 L32744 22952 "
         id="path80" />
    </g>
    <g
       id="g84" />
    <g
       style="fill:#FFFFFF; fill-opacity:1.0;  stroke:#FFFFFF; stroke-width:0; stroke-opacity:1;  stroke-linecap:round; stroke-linejoin:round;"
       id="g88">
      <circle
         cx="34300"
         cy="26450"
         r="590.551"
         id="circle86" />
    </g>
    <g
       style="fill:#FFFFFF; fill-opacity:1.0;  stroke:#FFFFFF; stroke-width:39.3701; stroke-opacity:1;  stroke-linecap:round; stroke-linejoin:round;"
       id="g90" />
    <g
       style="fill:#FFFFFF; fill-opacity:1.0;  stroke:#FFFFFF; stroke-width:0; stroke-opacity:1;  stroke-linecap:round; stroke-linejoin:round;"
       id="g94">
      <path
         style="fill:#FFFFFF; fill-opacity:1.0;  stroke:#FFFFFF; stroke-width:0; stroke-opacity:1;  stroke-linecap:round; stroke-linejoin:round;fill-rule:evenodd;"
         d="M 31709,27040 31709,25859 32890,25859 32890,27040 31709,27040 Z"
         id="path92" />
    </g>
    <g
       id="g100">
      <path
         style="fill:#FFFFFF; fill-opacity:1.0;  stroke:#FFFFFF; stroke-width:0; stroke-opacity:1;  stroke-linecap:round; stroke-linejoin:round;fill-rule:evenodd;"
         d="M 41090,23290 39909,23290 39909,22109 41090,22109 41090,23290 Z"
         id="path96" />
      <circle
         cx="40500"
         cy="20700"
         r="590.551"
         id="circle98" />
    </g>
    <g
       style="fill:#FFFFFF; fill-opacity:1.0;  stroke:#FFFFFF; stroke-width:39.3701; stroke-opacity:1;  stroke-linecap:round; stroke-linejoin:round;"
       id="g102" />
    <g
       id="g104" />
    <g
       style="fill:#FFFFFF; fill-opacity:1.0;  stroke:#FFFFFF; stroke-width:629.921; stroke-opacity:1;  stroke-linecap:round; stroke-linejoin:round;"
       id="g106" />
    <g
       style="fill:#FFFFFF; fill-opacity:0.0;  stroke:#FFFFFF; stroke-width:629.921; stroke-opacity:1;  stroke-linecap:round; stroke-linejoin:round;"
       id="g110">
      <path
         d="M36400 18700 L36400 18700 "
         id="path108" />
    </g>
    <g
       style="fill:#FFFFFF; fill-opacity:1.0;  stroke:#FFFFFF; stroke-width:0; stroke-opacity:1;  stroke-linecap:round; stroke-linejoin:round;"
       id="g114">
      <circle
         cx="32400"
         cy="18700"
         r="314.961"
         id="circle112" />
    </g>
    <g
       style="fill:#FFFFFF; fill-opacity:1.0;  stroke:#FFFFFF; stroke-width:39.3701; stroke-opacity:1;  stroke-linecap:round; stroke-linejoin:round;"
       id="g116" />
    <g
       id="g118" />
    <g
       style="fill:#FFFFFF; fill-opacity:1.0;  stroke:#FFFFFF; stroke-width:866.142; stroke-opacity:1;  stroke-linecap:round; stroke-linejoin:round;"
       id="g120" />
    <g
       style="fill:#FFFFFF; fill-opacity:0.0;  stroke:#FFFFFF; stroke-width:866.142; stroke-opacity:1;  stroke-linecap:round; stroke-linejoin:round;"
       id="g126">
      <path
         d="M36300 25963 L36300 26436 "
         id="path122" />
      <path
         d="M38300 25963 L38300 26436 "
         id="path124" />
    </g>
    <g
       id="g128" />
    <g
       style="fill:#FFFFFF; fill-opacity:0.0;  stroke:#FFFFFF; stroke-width:629.921; stroke-opacity:1;  stroke-linecap:round; stroke-linejoin:round;"
       id="g144">
      <path
         d="M34857 23100 L34542 23100 "
         id="path130" />
      <path
         d="M37857 20100 L37542 20100 "
         id="path132" />
      <path
         d="M34857 22100 L34542 22100 "
         id="path134" />
      <path
         d="M37857 21100 L37542 21100 "
         id="path136" />
      <path
         d="M34857 21100 L34542 21100 "
         id="path138" />
      <path
         d="M37857 22100 L37542 22100 "
         id="path140" />
      <path
         d="M34857 20100 L34542 20100 "
         id="path142" />
    </g>
    <g
       style="fill:#FFFFFF; fill-opacity:0.0;  stroke:#FFFFFF; stroke-width:0; stroke-opacity:1;  stroke-linecap:round; stroke-linejoin:round;"
       id="g146" />
    <g
       style="fill:#FFFFFF; fill-opacity:1.0;  stroke:#FFFFFF; stroke-width:0; stroke-opacity:1;  stroke-linecap:round; stroke-linejoin:round;"
       id="g150">
      <path
         style="fill:#FFFFFF; fill-opacity:1.0;  stroke:#FFFFFF; stroke-width:0; stroke-opacity:1;  stroke-linecap:round; stroke-linejoin:round;fill-rule:evenodd;"
         d="M 38172,22785 38172,23414 37227,23414 37227,22785 38172,22785 Z"
         id="path148" />
    </g>
    <g
       id="g152" />
    <g
       id="g154" />
    <g
       style="fill:#FFFFFF; fill-opacity:1.0;  stroke:#FFFFFF; stroke-width:196.85; stroke-opacity:1;  stroke-linecap:round; stroke-linejoin:round;"
       id="g156" />
    <g
       style="fill:#FFFFFF; fill-opacity:0.0;  stroke:#FFFFFF; stroke-width:196.85; stroke-opacity:1;  stroke-linecap:round; stroke-linejoin:round;"
       id="g220">
      <path
         d="M37857 20100 L37700 20100 "
         id="path158" />
      <path
         d="M38615 19341 L37857 20100 "
         id="path160" />
      <path
         d="M38615 18300 L38615 19341 "
         id="path162" />
      <path
         d="M39141 19341 L40500 20700 "
         id="path164" />
      <path
         d="M38615 19341 L39141 19341 "
         id="path166" />
      <path
         d="M37857 22100 L37700 22100 "
         id="path168" />
      <path
         d="M38369 21588 L37857 22100 "
         id="path170" />
      <path
         d="M38369 21430 L38369 21588 "
         id="path172" />
      <path
         d="M39100 20700 L38369 21430 "
         id="path174" />
      <path
         d="M40500 20700 L39100 20700 "
         id="path176" />
      <path
         d="M34890 27040 L34300 26450 "
         id="path178" />
      <path
         d="M35250 27400 L34890 27040 "
         id="path180" />
      <path
         d="M36900 22100 L36800 22200 "
         id="path182" />
      <path
         d="M37700 22100 L36900 22100 "
         id="path184" />
      <path
         d="M36800 24000 L37100 24300 "
         id="path186" />
      <path
         d="M36800 22200 L36800 24000 "
         id="path188" />
      <path
         d="M37100 24300 L37100 27400 "
         id="path190" />
      <path
         d="M37100 27400 L35250 27400 "
         id="path192" />
      <path
         d="M33375 27375 L34300 26450 "
         id="path194" />
      <path
         d="M30429 21968 L30429 26429 "
         id="path196" />
      <path
         d="M39664 20700 L40500 20700 "
         id="path198" />
      <path
         d="M39000 20700 L39664 20700 "
         id="path200" />
      <path
         d="M38600 20300 L39000 20700 "
         id="path202" />
      <path
         d="M37700 20100 L37900 20300 "
         id="path204" />
      <path
         d="M31100 27100 L31100 28900 "
         id="path208" />
      <path
         d="M30429 26429 L31100 27100 "
         id="path210" />
      <path
         d="M31100 28900 L33400 28900 "
         id="path212" />
      <path
         d="M33375 28875 L33375 27375 "
         id="path214" />
      <path
         d="M33400 28900 L33375 28875 "
         id="path216" />
      <path
         d="M32400 18700 L32400 20000 "
         id="path218" />
    </g>
    <g
       style="fill:#FFFFFF; fill-opacity:0.0;  stroke:#FFFFFF; stroke-width:275.591; stroke-opacity:1;  stroke-linecap:round; stroke-linejoin:round;"
       id="g228">
      <path
         d="M35500 21100 L34700 21100 "
         id="path222" />
      <path
         d="M36300 26200 L36300 21900 "
         id="path224" />
      <path
         d="M36300 21900 L35500 21100 "
         id="path226" />
    </g>
    <g
       style="fill:#FFFFFF; fill-opacity:0.0;  stroke:#FFFFFF; stroke-width:196.85; stroke-opacity:1;  stroke-linecap:round; stroke-linejoin:round;"
       id="g264">
      <path
         d="M38300 25200 L38300 26200 "
         id="path230" />
      <path
         d="M40500 22700 L40500 23000 "
         id="path232" />
      <path
         d="M40500 23000 L38300 25200 "
         id="path234" />
      <path
         d="M40500 22400 L40500 22700 "
         id="path236" />
      <path
         d="M41500 21400 L40500 22400 "
         id="path238" />
      <path
         d="M41500 19688 L41500 21400 "
         id="path240" />
      <path
         d="M39600 18300 L40111 18300 "
         id="path242" />
      <path
         d="M40111 18300 L41500 19688 "
         id="path244" />
      <path
         d="M32300 25662 L32300 26450 "
         id="path246" />
      <path
         d="M33700 24262 L32300 25662 "
         id="path248" />
      <path
         d="M33700 20942 L33700 24262 "
         id="path250" />
      <path
         d="M34700 20100 L34542 20100 "
         id="path252" />
      <path
         d="M34542 20100 L33700 20942 "
         id="path254" />
      <path
         d="M37542 21100 L37700 21100 "
         id="path256" />
      <path
         d="M36085 19642 L37542 21100 "
         id="path258" />
      <path
         d="M36085 19014 L36085 19642 "
         id="path260" />
      <path
         d="M36400 18700 L36085 19014 "
         id="path262" />
    </g>
    <g
       id="g266" />
    <g
       style="fill:#FFFFFF; fill-opacity:1.0;  stroke:#FFFFFF; stroke-width:196.85; stroke-opacity:1;  stroke-linecap:round; stroke-linejoin:round;"
       id="g270">
      <path
         style="fill:#FFFFFF; fill-opacity:1.0;  stroke:#FFFFFF; stroke-width:196.85; stroke-opacity:1;  stroke-linecap:round; stroke-linejoin:round;fill-rule:evenodd;"
         d="M 41901,19520 41877,19475 41861,19446 41821,19397 41807,19380 41791,19366 40433,18008 40419,17992 40353,17938 40278,17897 40234,17884 40225,17856 40194,17798 40152,17747 40101,17705 40043,17674 39980,17655 39914,17648 39285,17648 39219,17655 39156,17674 39098,17705 39047,17747 39005,17798 38983,17838 38976,17800 38872,17739 38758,17700 38638,17684 38517,17691 38400,17722 38292,17775 38254,17800 38233,17915 38615,18297 38621,18292 38623,18294 38617,18300 38623,18305 38621,18307 38615,18302 38233,18684 38254,18799 38359,18860 38473,18899 38593,18915 38713,18908 38830,18877 38939,18824 38976,18799 38983,18761 39005,18801 39047,18852 39098,18894 39156,18925 39219,18944 39285,18951 39914,18951 39980,18944 40043,18925 40096,18897 41066,19867 41066,20091 41023,19976 40872,19888 40707,19831 40533,19807 40358,19817 40189,19862 40031,19939 39976,19976 39922,20119 40500,20697 40505,20692 40507,20694 40502,20700 40507,20705 40505,20707 40500,20702 39922,21280 39976,21423 40127,21511 40293,21568 40466,21592 40641,21582 40728,21559 40514,21773 39909,21773 39843,21779 39780,21798 39722,21829 39671,21871 39629,21922 39598,21980 39579,22043 39573,22109 39573,23290 39575,23312 38008,24878 37992,24892 37938,24958 37897,25033 37873,25115 37866,25178 37864,25200 37866,25221 37866,25326 37754,25418 37658,25535 37587,25668 37543,25813 37532,25926 37532,26473 37543,26586 37587,26731 37658,26864 37754,26981 37871,27077 38004,27148 38149,27192 38300,27207 38450,27192 38595,27148 38728,27077 38845,26981 38941,26864 39012,26731 39056,26586 39067,26473 39067,25926 39056,25813 39012,25668 38941,25535 38845,25418 38762,25350 40318,23793 40318,25237 41901,25237 41901,29301 29498,29301 29498,22657 29637,22657 29642,22715 29659,22772 29687,22824 29724,22869 29770,22906 29822,22934 29878,22951 29937,22957 30352,22955 30427,22881 30427,21970 30430,21970 30430,22881 30505,22955 30921,22957 30979,22951 31036,22934 31087,22906 31133,22869 31170,22824 31198,22772 31215,22715 31221,22657 31219,22044 31145,21970 30430,21970 30427,21970 29713,21970 29638,22044 29637,22657 29498,22657 29498,21279 29637,21279 29638,21892 29713,21966 30427,21966 30427,21055 30430,21055 30430,21966 31145,21966 31219,21892 31221,21279 31215,21221 31198,21164 31170,21112 31133,21067 31087,21030 31036,21002 30979,20985 30921,20979 30505,20981 30430,21055 30427,21055 30352,20981 29937,20979 29878,20985 29822,21002 29770,21030 29724,21067 29687,21112 29659,21164 29642,21221 29637,21279 29498,21279 29498,20000 31373,20000 31386,20133 31425,20261 31488,20379 31572,20482 31584,20492 31572,20501 31488,20605 31425,20723 31386,20851 31373,20984 31386,21117 31425,21245 31488,21363 31572,21466 31676,21551 31794,21614 31922,21653 32022,21663 32777,21663 32877,21653 33005,21614 33123,21551 33227,21466 33266,21418 33266,22518 33227,22470 33123,22385 33005,22322 32877,22283 32777,22273 32022,22273 31922,22283 31794,22322 31676,22385 31572,22470 31488,22573 31425,22691 31386,22819 31373,22952 31386,23085 31425,23213 31488,23331 31572,23435 31584,23444 31572,23454 31488,23557 31425,23675 31386,23803 31373,23937 31386,24070 31425,24198 31488,24316 31572,24419 31676,24504 31794,24567 31922,24606 32022,24616 32734,24616 32008,25341 31992,25354 31938,25420 31897,25496 31889,25523 31709,25523 31643,25529 31580,25548 31522,25579 31471,25621 31429,25672 31398,25730 31379,25793 31373,25859 31373,27040 31379,27106 31398,27169 31429,27227 31440,27240 31440,28883 32959,28883 32959,27410 33511,27410 33511,29083 34888,29083 34888,27410 33511,27410 32959,27410 32959,27369 33019,27351 33077,27320 33128,27278 33170,27227 33201,27169 33220,27106 33226,27040 33226,27030 33722,27030 33776,27173 33927,27261 34093,27318 34266,27342 34441,27332 34522,27310 37775,27310 37775,28983 41824,28983 41824,27310 37775,27310 34522,27310 34610,27287 34768,27210 34823,27173 34877,27030 34300,26452 33722,27030 33226,27030 33226,26416 33407,26416 33417,26591 33462,26760 33539,26918 33576,26973 33719,27027 34297,26450 34302,26450 34880,27027 35023,26973 35111,26822 35168,26657 35192,26483 35182,26308 35137,26139 35060,25981 35023,25926 34880,25872 34302,26450 34297,26450 33719,25872 33576,25926 33488,26077 33431,26243 33407,26416 33226,26416 33226,25869 33722,25869 34300,26447 34877,25869 34823,25726 34672,25638 34507,25581 34333,25557 34158,25567 33989,25612 33831,25689 33776,25726 33722,25869 33226,25869 33226,25859 33220,25793 33201,25730 33170,25672 33128,25621 33077,25579 33023,25551 33991,24583 34007,24570 34061,24504 34102,24429 34126,24347 34133,24283 34133,24283 34135,24262 34133,24241 34133,23604 34179,23642 34292,23703 34415,23740 34510,23749 34889,23749 34984,23740 35107,23703 35220,23642 35319,23561 35400,23462 35460,23349 35497,23227 35510,23100 35497,22972 35460,22850 35400,22737 35319,22638 35272,22600 35319,22561 35400,22462 35460,22349 35497,22227 35510,22100 35497,21972 35460,21850 35400,21737 35319,21638 35272,21600 35304,21573 35827,22095 35827,25358 35754,25418 35658,25535 35587,25668 35543,25813 35532,25926 35532,26473 35543,26586 35587,26731 35658,26864 35754,26981 35871,27077 36004,27148 36149,27192 36300,27207 36450,27192 36595,27148 36728,27077 36845,26981 36941,26864 37012,26731 37056,26586 37067,26473 37067,25926 37056,25813 37012,25668 36941,25535 36845,25418 36772,25358 36772,22785 36891,22785 36891,23414 36897,23480 36916,23543 36947,23601 36989,23652 37040,23694 37098,23725 37161,23744 37227,23751 38172,23751 38238,23744 38301,23725 38359,23694 38410,23652 38452,23601 38483,23543 38502,23480 38508,23414 38508,22785 38502,22719 38483,22656 38452,22598 38410,22547 38359,22505 38328,22488 38368,22439 38424,22333 38459,22218 38463,22197 38396,22101 37701,22101 37701,22109 37698,22109 37698,22101 37003,22101 36936,22197 36940,22218 36975,22333 37031,22439 37071,22488 37040,22505 36989,22547 36947,22598 36916,22656 36897,22719 36891,22785 36772,22785 36772,21923 36774,21900 36771,21866 36765,21807 36738,21718 36724,21691 36694,21636 36650,21582 36650,21582 36635,21564 36617,21549 35850,20782 35835,20764 35763,20705 35681,20661 35592,20634 35523,20627 35523,20627 35500,20625 35476,20627 35305,20627 35272,20600 35319,20561 35400,20462 35460,20349 35497,20227 35510,20100 35497,19972 35460,19850 35400,19737 35319,19638 35220,19557 35107,19496 34984,19459 34889,19450 34510,19450 34415,19459 34292,19496 34179,19557 34080,19638 33999,19737 33939,19850 33902,19972 33889,20100 33893,20136 33408,20621 33392,20634 33353,20682 33311,20605 33227,20501 33215,20492 33227,20482 33311,20379 33374,20261 33413,20133 33426,20000 33413,19866 33374,19738 33311,19620 33227,19517 33123,19432 33005,19369 32877,19330 32833,19326 32833,19185 32904,19114 32970,19014 35649,19014 35651,19036 35651,19621 35649,19642 35651,19663 35651,19663 35658,19727 35682,19807 35682,19809 35723,19884 35754,19922 35777,19950 35793,19963 36893,21063 36889,21100 36902,21227 36939,21349 36999,21462 37080,21561 37158,21625 37107,21667 37031,21760 36975,21866 36940,21981 36936,22002 37003,22098 37698,22098 37698,22090 37701,22090 37701,22098 38396,22098 38463,22002 38459,21981 38424,21866 38368,21760 38292,21667 38241,21625 38319,21561 38400,21462 38460,21349 38497,21227 38510,21100 38497,20972 38460,20850 38400,20737 38342,20666 39607,20666 39617,20841 39662,21010 39739,21168 39776,21223 39919,21277 40497,20700 39919,20122 39776,20176 39688,20327 39631,20493 39607,20666 38342,20666 38319,20638 38241,20574 38292,20532 38368,20439 38424,20333 38459,20218 38463,20197 38396,20101 37701,20101 37701,20109 37698,20109 37698,20101 37690,20101 37690,20098 37698,20098 37698,19486 37701,19486 37701,20098 38396,20098 38463,20002 38459,19981 38424,19866 38368,19760 38292,19667 38199,19590 38093,19533 37978,19498 37859,19486 37701,19486 37698,19486 37540,19486 37421,19498 37306,19533 37200,19590 37107,19667 37031,19760 36975,19866 36962,19907 36518,19463 36518,19341 36527,19340 36649,19303 36762,19242 36861,19161 36942,19062 37003,18949 37040,18827 37052,18700 37040,18572 37003,18450 36942,18337 36893,18277 37999,18277 38007,18397 38038,18514 38091,18623 38116,18661 38231,18681 38613,18300 38231,17918 38116,17938 38055,18043 38016,18157 37999,18277 36893,18277 36861,18238 36762,18157 36649,18096 36527,18059 36431,18050 36368,18050 36272,18059 36150,18096 36037,18157 35938,18238 35857,18337 35796,18450 35759,18572 35747,18700 35751,18739 35723,18773 35682,18848 35658,18930 35652,18991 35649,19014 32970,19014 32975,19007 33024,18889 33049,18763 33049,18636 33024,18510 32975,18392 32904,18285 32814,18195 32707,18124 32589,18075 32463,18050 32336,18050 32210,18075 32092,18124 31985,18195 31895,18285 31824,18392 31775,18510 31750,18636 31750,18763 31775,18889 31824,19007 31895,19114 31966,19185 31966,19326 31922,19330 31794,19369 31676,19432 31572,19517 31488,19620 31425,19738 31386,19866 31373,20000 29498,20000 29498,17610 29571,17610 29571,19283 31428,19283 31428,17610 29571,17610 29498,17610 29498,17498 41901,17498 41901,19520 Z"
         id="path268" />
    </g>
  </g>
  <g
     style="fill:#000000; fill-opacity:1.0;  stroke:#000000; stroke-width:196.85; stroke-opacity:1;  stroke-linecap:round; stroke-linejoin:round;"
     id="g274" />
  <g
     style="fill:#000000; fill-opacity:1.0;  stroke:#000000; stroke-width:0; stroke-opacity:1;  stroke-linecap:round; stroke-linejoin:round;"
     id="g278">
    <circle
       cx="38615.7"
       cy="18300"
       r="157.48"
       id="circle276" />
  </g>
  <g
     style="fill:#000000; fill-opacity:1.0;  stroke:#000000; stroke-width:39.3701; stroke-opacity:1;  stroke-linecap:round; stroke-linejoin:round;"
     id="g280" />
  <g
     style="fill:#000000; fill-opacity:1.0;  stroke:#000000; stroke-width:0; stroke-opacity:1;  stroke-linecap:round; stroke-linejoin:round;"
     id="g284">
    <circle
       cx="39600"
       cy="18300"
       r="157.48"
       id="circle282" />
  </g>
  <g
     style="fill:#000000; fill-opacity:1.0;  stroke:#000000; stroke-width:39.3701; stroke-opacity:1;  stroke-linecap:round; stroke-linejoin:round;"
     id="g286" />
  <g
     style="fill:#000000; fill-opacity:1.0;  stroke:#000000; stroke-width:0; stroke-opacity:1;  stroke-linecap:round; stroke-linejoin:round;"
     id="g290">
    <circle
       cx="30429.1"
       cy="21968.5"
       r="236.22"
       id="circle288" />
  </g>
  <g
     style="fill:#000000; fill-opacity:1.0;  stroke:#000000; stroke-width:39.3701; stroke-opacity:1;  stroke-linecap:round; stroke-linejoin:round;"
     id="g292" />
  <g
     style="fill:#000000; fill-opacity:1.0;  stroke:#000000; stroke-width:0; stroke-opacity:1;  stroke-linecap:round; stroke-linejoin:round;"
     id="g296">
    <circle
       cx="32400"
       cy="20000"
       r="236.22"
       id="circle294" />
  </g>
  <g
     style="fill:#000000; fill-opacity:1.0;  stroke:#000000; stroke-width:39.3701; stroke-opacity:1;  stroke-linecap:round; stroke-linejoin:round;"
     id="g298" />
  <g
     style="fill:#000000; fill-opacity:1.0;  stroke:#000000; stroke-width:0; stroke-opacity:1;  stroke-linecap:round; stroke-linejoin:round;"
     id="g302">
    <circle
       cx="32400"
       cy="23937"
       r="236.22"
       id="circle300" />
  </g>
  <g
     style="fill:#000000; fill-opacity:1.0;  stroke:#000000; stroke-width:39.3701; stroke-opacity:1;  stroke-linecap:round; stroke-linejoin:round;"
     id="g304" />
  <g
     style="fill:#000000; fill-opacity:1.0;  stroke:#000000; stroke-width:0; stroke-opacity:1;  stroke-linecap:round; stroke-linejoin:round;"
     id="g308">
    <circle
       cx="32400"
       cy="20984.3"
       r="236.22"
       id="circle306" />
  </g>
  <g
     style="fill:#000000; fill-opacity:1.0;  stroke:#000000; stroke-width:39.3701; stroke-opacity:1;  stroke-linecap:round; stroke-linejoin:round;"
     id="g310" />
  <g
     style="fill:#000000; fill-opacity:1.0;  stroke:#000000; stroke-width:0; stroke-opacity:1;  stroke-linecap:round; stroke-linejoin:round;"
     id="g314">
    <circle
       cx="32400"
       cy="22952.8"
       r="236.22"
       id="circle312" />
  </g>
  <g
     style="fill:#000000; fill-opacity:1.0;  stroke:#000000; stroke-width:39.3701; stroke-opacity:1;  stroke-linecap:round; stroke-linejoin:round;"
     id="g316" />
  <g
     style="fill:#000000; fill-opacity:1.0;  stroke:#000000; stroke-width:0; stroke-opacity:1;  stroke-linecap:round; stroke-linejoin:round;"
     id="g320">
    <circle
       cx="34300"
       cy="26450"
       r="299.213"
       id="circle318" />
  </g>
  <g
     style="fill:#000000; fill-opacity:1.0;  stroke:#000000; stroke-width:39.3701; stroke-opacity:1;  stroke-linecap:round; stroke-linejoin:round;"
     id="g322" />
  <g
     style="fill:#000000; fill-opacity:1.0;  stroke:#000000; stroke-width:0; stroke-opacity:1;  stroke-linecap:round; stroke-linejoin:round;"
     id="g326">
    <circle
       cx="32300"
       cy="26450"
       r="299.213"
       id="circle324" />
  </g>
  <g
     style="fill:#000000; fill-opacity:1.0;  stroke:#000000; stroke-width:39.3701; stroke-opacity:1;  stroke-linecap:round; stroke-linejoin:round;"
     id="g328" />
  <g
     style="fill:#000000; fill-opacity:1.0;  stroke:#000000; stroke-width:0; stroke-opacity:1;  stroke-linecap:round; stroke-linejoin:round;"
     id="g332">
    <circle
       cx="40500"
       cy="22700"
       r="299.213"
       id="circle330" />
  </g>
  <g
     style="fill:#000000; fill-opacity:1.0;  stroke:#000000; stroke-width:39.3701; stroke-opacity:1;  stroke-linecap:round; stroke-linejoin:round;"
     id="g334" />
  <g
     style="fill:#000000; fill-opacity:1.0;  stroke:#000000; stroke-width:0; stroke-opacity:1;  stroke-linecap:round; stroke-linejoin:round;"
     id="g338">
    <ellipse
       cx="40504.102"
       cy="20716.422"
       id="circle336"
       style="fill:#ffffff;stroke-width:0"
       rx="604.39105"
       ry="553.75616" />
    <circle
       style="fill:#000000;fill-opacity:1;stroke:#000000;stroke-width:0;stroke-linecap:round;stroke-linejoin:round;stroke-opacity:1"
       cx="40505.203"
       cy="20713.791"
       id="circle336-0"
       r="299.21295" />
  </g>
  <g
     style="fill:#000000; fill-opacity:1.0;  stroke:#000000; stroke-width:39.3701; stroke-opacity:1;  stroke-linecap:round; stroke-linejoin:round;"
     id="g340" />
  <g
     style="fill:#000000; fill-opacity:1.0;  stroke:#000000; stroke-width:0; stroke-opacity:1;  stroke-linecap:round; stroke-linejoin:round;"
     id="g344">
    <circle
       cx="36400"
       cy="18700"
       r="157.48"
       id="circle342" />
  </g>
  <g
     style="fill:#000000; fill-opacity:1.0;  stroke:#000000; stroke-width:39.3701; stroke-opacity:1;  stroke-linecap:round; stroke-linejoin:round;"
     id="g346" />
  <g
     style="fill:#000000; fill-opacity:1.0;  stroke:#000000; stroke-width:0; stroke-opacity:1;  stroke-linecap:round; stroke-linejoin:round;"
     id="g350">
    <circle
       cx="32400"
       cy="18700"
       r="157.48"
       id="circle348" />
  </g>
  <g
     style="fill:#000000; fill-opacity:1.0;  stroke:#000000; stroke-width:39.3701; stroke-opacity:1;  stroke-linecap:round; stroke-linejoin:round;"
     id="g352" />
  <g
     style="fill:#000000; fill-opacity:1.0;  stroke:#000000; stroke-width:275.591; stroke-opacity:1;  stroke-linecap:round; stroke-linejoin:round;"
     id="g354" />
  <g
     style="fill:#000000; fill-opacity:0.0;  stroke:#000000; stroke-width:275.591; stroke-opacity:1;  stroke-linecap:round; stroke-linejoin:round;"
     id="g360">
    <path
       d="M36300 25944 L36300 26455 "
       id="path356" />
    <path
       d="M38300 25944 L38300 26455 "
       id="path358" />
  </g>
  <g
     style="fill:#000000; fill-opacity:1.0;  stroke:#000000; stroke-width:0; stroke-opacity:1;  stroke-linecap:round; stroke-linejoin:round;"
     id="g364">
    <circle
       cx="34700"
       cy="23100"
       r="157.48"
       id="circle362" />
  </g>
  <g
     style="fill:#000000; fill-opacity:1.0;  stroke:#000000; stroke-width:39.3701; stroke-opacity:1;  stroke-linecap:round; stroke-linejoin:round;"
     id="g366" />
  <g
     style="fill:#000000; fill-opacity:1.0;  stroke:#000000; stroke-width:0; stroke-opacity:1;  stroke-linecap:round; stroke-linejoin:round;"
     id="g370">
    <circle
       cx="37700"
       cy="20100"
       r="157.48"
       id="circle368" />
  </g>
  <g
     style="fill:#000000; fill-opacity:1.0;  stroke:#000000; stroke-width:39.3701; stroke-opacity:1;  stroke-linecap:round; stroke-linejoin:round;"
     id="g372" />
  <g
     style="fill:#000000; fill-opacity:1.0;  stroke:#000000; stroke-width:0; stroke-opacity:1;  stroke-linecap:round; stroke-linejoin:round;"
     id="g376">
    <circle
       cx="34700"
       cy="22100"
       r="157.48"
       id="circle374" />
  </g>
  <g
     style="fill:#000000; fill-opacity:1.0;  stroke:#000000; stroke-width:39.3701; stroke-opacity:1;  stroke-linecap:round; stroke-linejoin:round;"
     id="g378" />
  <g
     style="fill:#000000; fill-opacity:1.0;  stroke:#000000; stroke-width:0; stroke-opacity:1;  stroke-linecap:round; stroke-linejoin:round;"
     id="g382">
    <circle
       cx="37700"
       cy="21100"
       r="157.48"
       id="circle380" />
  </g>
  <g
     style="fill:#000000; fill-opacity:1.0;  stroke:#000000; stroke-width:39.3701; stroke-opacity:1;  stroke-linecap:round; stroke-linejoin:round;"
     id="g384" />
  <g
     style="fill:#000000; fill-opacity:1.0;  stroke:#000000; stroke-width:0; stroke-opacity:1;  stroke-linecap:round; stroke-linejoin:round;"
     id="g388">
    <circle
       cx="34700"
       cy="21100"
       r="157.48"
       id="circle386" />
  </g>
  <g
     style="fill:#000000; fill-opacity:1.0;  stroke:#000000; stroke-width:39.3701; stroke-opacity:1;  stroke-linecap:round; stroke-linejoin:round;"
     id="g390" />
  <g
     style="fill:#000000; fill-opacity:1.0;  stroke:#000000; stroke-width:0; stroke-opacity:1;  stroke-linecap:round; stroke-linejoin:round;"
     id="g394">
    <circle
       cx="37700"
       cy="22100"
       r="157.48"
       id="circle392" />
  </g>
  <g
     style="fill:#000000; fill-opacity:1.0;  stroke:#000000; stroke-width:39.3701; stroke-opacity:1;  stroke-linecap:round; stroke-linejoin:round;"
     id="g396" />
  <g
     style="fill:#000000; fill-opacity:1.0;  stroke:#000000; stroke-width:0; stroke-opacity:1;  stroke-linecap:round; stroke-linejoin:round;"
     id="g400">
    <circle
       cx="34700"
       cy="20100"
       r="157.48"
       id="circle398" />
  </g>
  <g
     style="fill:#000000; fill-opacity:1.0;  stroke:#000000; stroke-width:39.3701; stroke-opacity:1;  stroke-linecap:round; stroke-linejoin:round;"
     id="g402" />
  <g
     style="fill:#000000; fill-opacity:1.0;  stroke:#000000; stroke-width:0; stroke-opacity:1;  stroke-linecap:round; stroke-linejoin:round;"
     id="g406">
    <circle
       cx="37700"
       cy="23100"
       r="157.48"
       id="circle404" />
  </g>
  <g
     style="fill:#000000; fill-opacity:1.0;  stroke:#000000; stroke-width:39.3701; stroke-opacity:1;  stroke-linecap:round; stroke-linejoin:round;"
     id="g408" />
  <g
     style="fill:#FFFFFF; fill-opacity:1.0;  stroke:#FFFFFF; stroke-width:39.3701; stroke-opacity:1;  stroke-linecap:round; stroke-linejoin:round;"
     id="g410" />
</svg>
